<svg xmlns="http://www.w3.org/2000/svg" xml:space="preserve" width="758.13763" height="700" viewBox="0 0 758.13763 700"><path d="M0 0a7.335 7.335 0 1 0 .002 14.67A7.335 7.335 0 0 0 0 0m0 21.243c-7.679 0-13.901-6.226-13.901-13.907C-13.901-.346-7.679-6.566 0-6.566c7.684 0 13.909 6.22 13.909 13.902 0 7.681-6.225 13.907-13.909 13.907" style="fill:#007ac2;fill-opacity:1;fill-rule:nonzero;stroke:none" transform="matrix(5.59732 0 0 -5.59732 216.671 663.248)"/><path d="M0 0a7.336 7.336 0 0 0 0 14.67 7.33 7.33 0 0 0 7.33-7.334A7.332 7.332 0 0 0 0 0m0 21.243c-7.682 0-13.907-6.226-13.907-13.907C-13.907-.346-7.682-6.566 0-6.566c7.677 0 13.901 6.22 13.901 13.902 0 7.681-6.224 13.907-13.901 13.907" style="fill:#007ac2;fill-opacity:1;fill-rule:nonzero;stroke:none" transform="matrix(5.59732 0 0 -5.59732 511.29 663.248)"/><path d="M0 0h-6.775v-26.08H8.966v6.046H0Z" style="fill:#007ac2;fill-opacity:1;fill-rule:nonzero;stroke:none" transform="matrix(5.59732 0 0 -5.59732 363.95 549.186)"/><path d="m0 0-8.212-10.825v10.82h-6.781V-26.08h6.781v10.821L0-26.079h8.465L-1.908-13.042 8.465 0Z" style="fill:#007ac2;fill-opacity:1;fill-rule:nonzero;stroke:none" transform="matrix(5.59732 0 0 -5.59732 83.92 549.186)"/><path d="M0 0v-14.918h-.071L-10.936 0h-6.846v-26.08h6.78v15.962h.07L.694-26.08h6.078V0Z" style="fill:#007ac2;fill-opacity:1;fill-rule:nonzero;stroke:none" transform="matrix(5.59732 0 0 -5.59732 720.233 549.186)"/><path d="M0 0c-1.987 3.508.825 7.031 4.081 7.031l55.479-.039c4.582 0 5.804-4.298 3.96-7.263l-9.987-17.278c-1.611-3.211-5.617-3.086-7.387-.124L36.486-.856c-2.659 4.513-6.405 4.606-9.155 0l-9.469-16.363c-1.329-2.482.748-6.141 4.088-6.141h55.465c3.843 0 5.699-4.267 4.15-6.995L54.073-77.951c-1.802-3.574-6.902-3.365-8.887-.044l-9.74 16.59c-1.996 3.531.711 7.634 3.97 7.634h20.672c3.104 0 4.929 3.221 3.152 6.344l-9.074 15.972c-2.384 4.052-6.189 4.273-8.691.176L18.422-77.85c-1.745-3.553-5.978-3.637-7.989-.228l-27.889 47.556c-2.19 3.909.877 7.235 4.292 7.235H6.048c4.755 0 6.064-4.219 4.191-7.269L.3-47.8c-1.469-2.629.859-6.013 4.087-6.013h20.047c3.065 0 5.079 2.814 3.307 5.953z" style="fill:#ed1b2d;fill-opacity:1;fill-rule:nonzero;stroke:none" transform="matrix(5.59732 0 0 -5.59732 200.168 39.355)"/></svg>