<svg xmlns="http://www.w3.org/2000/svg" xml:space="preserve" width="1997.7095" height="300" viewBox="0 0 1997.7095 299.99999"><path fill="#fff" d="M321.423 0c-31.88 0-61.417 9.974-85.712 26.932C211.408 9.974 181.873 0 149.99 0 67.149 0 0 67.155 0 149.991c0 82.847 67.148 149.995 149.992 149.995 31.88 0 61.416-9.97 85.719-26.93 24.295 16.96 53.831 26.93 85.712 26.93 82.837 0 149.998-67.148 149.998-149.995C471.421 67.155 404.26 0 321.423 0Z"/><path fill="#ed1c24" d="M460.137 92.848a149.726 149.726 0 0 0-8.412-17.197L292.499 196.899l-56.788 43.249-22.196 14.002-72.23 45.588c2.885.168 5.788.262 8.71.262 9.266 0 18.332-.847 27.13-2.46l41.893-37.967 16.693-15.131 52.115-35.2zM462.794 99.768 237.185 274.105C261.202 290.44 290.194 300 321.423 300c82.84 0 149.998-67.162 149.998-150.002 0-17.62-3.046-34.525-8.627-50.23zM149.995 0C67.155 0 0 67.158 0 149.998c0 17.627 3.05 34.545 8.637 50.254L234.202 25.867C210.192 9.547 181.214 0 149.995 0ZM235.71 121.319l50.822-33.497 106.05-69.897a148.797 148.797 0 0 0-19.43-8.764L282.75 80.135l-47.04 36.93-63.956 42.86-133.87 89.71c4.24 4.764 8.775 9.26 13.586 13.458l121.262-93.311ZM235.71 152.125l59.55-39.628 119.77-79.7a149.93 149.93 0 0 0-16.283-11.351l-106.06 82.212-56.976 44.167-59.556 39.647-119.75 79.74c5.16 4.125 10.599 7.914 16.283 11.341l106.037-82.239zM235.71 182.877l63.954-42.833 133.877-89.676a150.892 150.892 0 0 0-13.58-13.455l-121.278 93.248-62.972 48.416-50.849 33.54L78.83 282.06a148.435 148.435 0 0 0 19.444 8.775l90.386-70.99ZM235.71 90.563l38.325-24.893L365.16 6.483a149.274 149.274 0 0 0-23.74-5.153l-72.04 57.88-33.668 27.053-62.741 42.248L22.854 229.6a150.76 150.76 0 0 0 11.043 15.373L171.8 139.456ZM235.71 59.757l22.142-13.965L330.067.255C327.205.09 324.326 0 321.423 0c-9.212 0-18.225.836-26.976 2.425L252.4 40.421l-16.69 15.083-52.094 35.207L11.287 207.159a149.798 149.798 0 0 0 8.416 17.2l159.247-121.35ZM235.71 213.69l62.741-42.235L448.574 70.41a149.9 149.9 0 0 0-11.042-15.37L299.62 160.51l-63.91 48.88-38.34 24.913-91.115 59.206a149.013 149.013 0 0 0 23.725 5.154l72.043-57.903z"/><path fill="#034ea2" d="M944.301 219.138c-17.607 0-31.878 14.25-31.878 31.854 0 17.61 14.271 31.888 31.878 31.888l.52.055h10.684v-14.27H944.3c-9.742 0-17.637-7.929-17.637-17.671 0-9.736 7.895-17.577 17.637-17.577l.325-.007h10.879v-14.277h-10.683l-.521.007zM1099.923 219.138c-17.604 0-31.874 14.25-31.874 31.854 0 17.61 14.27 31.888 31.874 31.888l.524.055h10.683v-14.27h-11.207c-9.742 0-17.63-7.929-17.63-17.671 0-9.736 7.888-17.577 17.63-17.577l.336-.007h10.87v-14.277h-10.682l-.524.007zM1351.114 233.456h11.207v-14.27h-11.207c-17.59 0-31.861 14.23-31.874 31.82v.041c0 17.604 14.27 31.875 31.874 31.875l.524.055h10.683v-14.272h-11.207c-7.216 0-13.41-4.347-16.139-10.561h27.4v-14.271h-27.36c2.755-6.141 8.923-10.415 16.099-10.415zM1212.29 217.68c-18.357 0-33.232 14.876-33.232 33.232s14.875 33.238 33.231 33.238 33.231-14.882 33.231-33.238-14.875-33.232-33.23-33.232m0 52.206c-10.483 0-18.975-8.493-18.975-18.974s8.492-18.974 18.974-18.974c10.481 0 18.974 8.493 18.974 18.974s-8.493 18.974-18.974 18.974z"/><path fill="#034ea2" d="M1178.574 232.805c-3.091-7.963-10.805-13.626-19.848-13.673H1134.23v14.27h24.39v.014a7.14 7.14 0 0 1 7.135 7.136c0 3.951-3.199 7.149-7.135 7.149v-.02h-24.39l.028 13.322v21.965h14.27v-21.01h10.67c8.842-.242 16.34-5.819 19.377-13.653a21.234 21.234 0 0 0 0-15.5zM1048.295 240.551a21.51 21.51 0 0 0-1.465-7.746c-3.103-7.963-10.803-13.626-19.847-13.673h-24.497v14.27h24.376v.014c3.95 0 7.149 3.199 7.149 7.136a7.145 7.145 0 0 1-7.149 7.149v-.02h-24.376l.014 13.322v21.965h14.284v-21.01H1026.876a7.151 7.151 0 0 1 7.136 7.148l-.014 13.828h14.284l.014-13.008c0-2.741-.537-5.348-1.465-7.754a21.604 21.604 0 0 0-4.393-6.933 21.53 21.53 0 0 0 4.393-6.934 21.494 21.494 0 0 0 1.465-7.754zM958.41 233.476h13.492v49.458h14.274v-49.458h13.441v-14.344h-41.206zM1051.144 282.934h14.27v-63.802h-14.27zM1411.046 240.551c0-2.727-.524-5.34-1.465-7.746-3.09-7.963-10.804-13.626-19.847-13.673h-24.498v14.27h24.39v.014a7.14 7.14 0 0 1 7.136 7.136c0 3.951-3.199 7.149-7.136 7.149v-.02h-24.39l.029 13.322v21.965h14.27v-21.01h10.092a7.152 7.152 0 0 1 7.136 7.148v13.828h14.284v-13.008c0-2.741-.524-5.348-1.465-7.754a21.374 21.374 0 0 0-4.394-6.933 21.302 21.302 0 0 0 4.394-6.934 21.204 21.204 0 0 0 1.465-7.754zM1316.646 219.199h-14.285v45.312a6.446 6.446 0 0 1-6.409 5.657 6.445 6.445 0 0 1-6.396-5.624V219.2h-14.285v45.312a6.446 6.446 0 0 1-6.41 5.657 6.468 6.468 0 0 1-6.409-5.624V219.2h-14.271l.013 45.157c0 11.08 8.976 20.056 20.062 20.056 5.536 0 10.536-2.23 14.163-5.852a19.992 19.992 0 0 0 14.164 5.852c11.086 0 20.062-8.977 20.062-20.056v-.503zM1459.744 268.824c-9.742 0-17.63-7.928-17.63-17.67 0-9.736 7.888-17.577 17.63-17.577l.336-.007h10.872v-14.277h-10.684l-.524.007c-17.603 0-31.874 14.25-31.874 31.854 0 17.61 14.271 31.88 31.874 31.88l.524.062h10.684v-14.27h-11.208zM1801.989 219.313h-13.491v14.345h13.491v49.458h14.27v-49.458h13.438v-14.345h-13.437zM1832.546 283.068h14.271V219.28h-14.27z"/><path fill="#034ea2" d="M1499.238 217.936c-18.343 0-33.232 14.882-33.232 33.238s14.89 33.238 33.232 33.238c18.356 0 33.244-14.882 33.244-33.238s-14.888-33.238-33.244-33.238m0 52.205c-10.468 0-18.961-8.493-18.961-18.967 0-10.475 8.493-18.974 18.96-18.974 10.482 0 18.975 8.499 18.975 18.974 0 10.474-8.493 18.967-18.974 18.967zM1882.696 217.936c-18.356 0-33.245 14.882-33.245 33.238s14.889 33.238 33.245 33.238c18.342 0 33.231-14.882 33.231-33.238s-14.889-33.238-33.23-33.238m0 52.205c-10.483 0-18.976-8.493-18.976-18.967 0-10.475 8.493-18.974 18.975-18.974 10.467 0 18.96 8.499 18.96 18.974 0 10.474-8.493 18.967-18.96 18.967zM1661.941 217.828c-18.355 0-33.231 14.876-33.231 33.232 0 18.355 14.876 33.244 33.231 33.244 18.356 0 33.245-14.889 33.245-33.244 0-18.356-14.889-33.232-33.245-33.232m0 52.206c-10.481 0-18.974-8.493-18.974-18.974 0-10.475 8.493-18.968 18.974-18.968 10.482 0 18.974 8.493 18.974 18.968 0 10.48-8.492 18.974-18.974 18.974z"/><path fill="#034ea2" d="M1628.226 232.959c-3.09-7.969-10.79-13.625-19.847-13.68h-24.498v14.278h24.39v.007c3.937 0 7.135 3.198 7.135 7.142 0 3.944-3.198 7.142-7.135 7.142v-.013h-24.39l.029 13.324v21.963h14.27v-21.017h10.67c8.842-.234 16.34-5.818 19.377-13.652a21.216 21.216 0 0 0 1.479-7.747c0-2.735-.538-5.342-1.479-7.747zM1775.557 219.36a21.194 21.194 0 0 0-7.74-1.478c-2.741 0-5.349.537-7.754 1.478-7.968 3.09-13.625 10.797-13.679 19.847V283.075h14.284V267.83h14.27v15.245h14.272V238.738c-.228-8.843-5.819-16.34-13.653-19.378m-.619 19.955v14.311h-14.27v-14.311a7.144 7.144 0 0 1 7.149-7.142 7.14 7.14 0 0 1 7.135 7.142zM1580.966 240.713c0-2.735-.538-5.342-1.479-7.747-3.09-7.962-10.79-13.626-19.847-13.673H1535.144v14.27h24.39v.014c3.95 0 7.148 3.198 7.148 7.136a7.145 7.145 0 0 1-7.148 7.148v-.02h-24.39l.028 13.323v21.957h14.271v-21.003h10.092c3.95.007 7.148 3.198 7.148 7.15l-.013 13.826h14.27l.029-13.007c0-2.741-.537-5.348-1.479-7.754a21.355 21.355 0 0 0-4.393-6.934 21.272 21.272 0 0 0 4.393-6.934 21.211 21.211 0 0 0 1.479-7.753zM1743.589 240.713c0-2.735-.538-5.342-1.465-7.747-3.104-7.962-10.804-13.626-19.847-13.673H1697.779v14.27h24.377v.014c3.95 0 7.148 3.198 7.148 7.136a7.145 7.145 0 0 1-7.148 7.148v-.02h-24.377l.013 13.323v21.957h14.284v-21.003h10.092a7.147 7.147 0 0 1 7.135 7.15l-.013 13.826h14.284l.013-13.007c0-2.741-.537-5.348-1.464-7.754a21.59 21.59 0 0 0-4.395-6.934 21.505 21.505 0 0 0 4.395-6.934 21.493 21.493 0 0 0 1.464-7.753zM1950.019 219.306v23.422a93.92 93.92 0 0 0-17.026-22.992c-.148-.147-.309-.282-.457-.43h-14.056v63.789h14.285V240.55c7.35 9.608 12.752 20.896 15.628 33.219.35 1.531.671 3.076.954 4.635.255 1.485.484 2.984.672 4.495.013.069.013.128.028.195h14.244v-63.789h-14.271zM818.282 233.456h11.204v-14.27h-11.203c-17.595 0-31.878 14.23-31.878 31.82v.041c0 17.604 14.27 31.875 31.877 31.875l.521.055h10.683v-14.272h-11.204c-7.216 0-13.408-4.347-16.142-10.561h27.406v-14.271h-27.363a17.617 17.617 0 0 1 16.1-10.415zM898.556 233.456h11.203v-14.27h-11.203c-17.594 0-31.878 14.23-31.878 31.82v.041a31.688 31.688 0 0 0 5.332 17.61l-16.499.014-1.676-.013c-3.944-.014-7.145-3.212-7.145-7.156h-.004V219.194H832.41v42.416c.048 9.057 5.705 16.756 13.673 19.854a21.347 21.347 0 0 0 7.75 1.471h18.181v-14.263c5.715 8.579 15.457 14.25 26.54 14.25l.52.055h10.684v-14.272h-11.204c-7.216 0-13.408-4.347-16.142-10.561h27.406v-14.271h-27.362a17.621 17.621 0 0 1 16.098-10.414zM708.318 233.403h11.204v-14.271H708.318c-17.594 0-31.877 14.23-31.877 31.82v.042c0 17.603 14.27 31.874 31.877 31.874l.52.055h10.684v-14.27h-11.204c-7.216 0-13.408-4.348-16.142-10.562h27.406v-14.272H692.22a17.618 17.618 0 0 1 16.098-10.413zM554.476 268.724c-9.738 0-17.637-7.922-17.637-17.664s7.899-17.584 17.637-17.584l.33-.007h10.874V219.2h-11.204c-11.714 0-21.843 6.383-27.382 15.802V219.2h-14.275v63.721h14.275v-15.79c5.54 9.421 15.668 15.804 27.382 15.804l.525.062h10.679v-14.271H554.476z"/><path fill="#034ea2" d="M593.94 217.828c-18.356 0-33.238 14.876-33.238 33.232 0 18.355 14.882 33.238 33.238 33.238 18.355 0 33.234-14.883 33.234-33.238 0-18.356-14.879-33.232-33.234-33.232m0 52.206c-10.478 0-18.971-8.493-18.971-18.974 0-10.475 8.493-18.974 18.971-18.974s18.97 8.499 18.97 18.974c0 10.48-8.492 18.974-18.97 18.974zM751.658 219.226a21.232 21.232 0 0 0-15.504 0c-7.965 3.09-13.626 10.803-13.672 19.847v43.874h14.274v-15.245h14.274v15.218l14.278.007V238.61c-.24-8.849-5.822-16.34-13.65-19.384m-.628 19.962v14.304h-14.274v-14.304h.007a7.143 7.143 0 0 1 7.142-7.143 7.144 7.144 0 0 1 7.146 7.143h-.021ZM675.332 240.672c0-2.74-.53-5.348-1.469-7.753-3.096-7.969-10.8-13.626-19.847-13.667h-24.5v14.272h24.386a7.145 7.145 0 0 1 7.146 7.148 7.144 7.144 0 0 1-7.146 7.142v-.02h-24.386l.027 13.33v21.863h14.274V262.07h10.085l.007.007a7.14 7.14 0 0 1 7.139 7.143l-.007 13.774h14.274l.014-12.954c0-2.735-.53-5.342-1.469-7.747a21.425 21.425 0 0 0-4.393-6.941 21.453 21.453 0 0 0 4.393-6.927 21.277 21.277 0 0 0 1.469-7.754zM730.51 55.33c-6.48 0-12.127 3.416-15.342 8.519V28.975h-35.711v143.89h-119.29V146.79h-35.714v25.458l.055.86c0 14.95 12.121 27.076 27.074 27.076h163.547v-25.437h.034V83.142c3.215 5.106 8.863 8.523 15.342 8.523 10.032 0 18.169-8.136 18.169-18.168 0-10.034-8.137-18.167-18.169-18.167zM971.042 62.408l-.055-.86c0-14.953-12.12-27.074-27.074-27.074l-17.499-.004-143.931-.007-.004 27.32 152.854.006v22.196H771.195v27.319h91.29c-2.356 3.063-3.814 6.853-3.814 11.015 0 4.304 1.56 8.204 4.058 11.315l-80.23-.004v27.315l152.834.014V200.25h35.707l.004-38.68-.055-.853c0-14.956-12.12-27.08-27.073-27.08H890.95c2.5-3.115 4.058-7.015 4.058-11.318 0-4.163-1.454-7.952-3.813-11.016h91.293V83.984h-11.446l.004-21.577zM1721.497 62.408l-.055-.86c0-14.953-12.121-27.074-27.077-27.074l-17.496-.004-143.931-.007v27.32l152.854.006V93.338h-54.718c2.069-2.846 3.318-6.32 3.318-10.11 0-9.53-7.726-17.257-17.253-17.257-9.541 0-17.254 7.727-17.254 17.258 0 3.79 1.25 7.263 3.319 10.109h-81.554v27.319h70.898c-9.017 8.948-14.62 21.348-14.62 35.062 0 27.278 22.118 49.383 49.383 49.383 27.279 0 49.384-22.105 49.384-49.383 0-13.714-5.59-26.114-14.62-35.063h70.87V93.338h-11.45v-30.93M1627.313 173.2c-9.648 0-17.482-7.82-17.482-17.482 0-9.652 7.834-17.48 17.482-17.48 9.662 0 17.482 7.828 17.482 17.48 0 9.662-7.82 17.482-17.482 17.482zM1051.95 127.953l39.749-66.26 39.493 66.193h35.704l-39.493-66.197h35.61V34.367h-142.816v27.322h35.798l-39.749 66.264z"/><path fill="#034ea2" d="M1223.133 28.975h-35.717v46.77c-3.225-5.104-8.869-8.517-15.346-8.517-10.038 0-18.168 8.134-18.168 18.169 0 10.03 8.13 18.164 18.168 18.164 6.477 0 12.12-3.414 15.346-8.517v77.821h-119.233v-29.777h-35.704v29.16l.055.86c0 14.95 12.12 27.076 27.077 27.076h127.806v.074h35.717v-.074h.028v-27.319h-.028V28.975ZM1441.966 51.91c-3.077-4.71-8.385-7.835-14.432-7.835-9.528 0-17.254 7.727-17.254 17.258 0 9.534 7.726 17.26 17.254 17.26 6.047 0 11.355-3.124 14.432-7.837V94.08c-3.077-4.71-8.385-7.835-14.432-7.835-9.528 0-17.254 7.727-17.254 17.258 0 9.533 7.726 17.26 17.254 17.26 6.047 0 11.355-3.124 14.432-7.837v25.172h-154.735v27.322h154.735v34.837h35.718V28.975h-35.718zM1979.541 67.094c-6.477 0-12.134 3.417-15.345 8.523V28.975h-35.705v171.283h35.705V94.91c3.211 5.103 8.868 8.52 15.345 8.52 10.025 0 18.168-8.134 18.168-18.168 0-10.032-8.143-18.168-18.168-18.168zM539.873 103.107c0 24.154 19.58 43.73 43.73 43.73 24.147 0 43.726-19.576 43.726-43.73 0-10.864-3.988-20.785-10.545-28.43h38.213V47.27h-61.964c4.71-3.08 7.834-8.385 7.834-14.432 0-9.534-7.727-17.26-17.26-17.26-9.532 0-17.258 7.726-17.258 17.26 0 6.047 3.124 11.352 7.834 14.432h-61.965v27.407h38.2c-6.558 7.645-10.545 17.566-10.545 28.43m43.73-15.477c8.546 0 15.476 6.93 15.476 15.477 0 8.55-6.93 15.48-15.476 15.48-8.554 0-15.48-6.93-15.48-15.48 0-8.546 6.926-15.477 15.48-15.477zM1852.582 34.387h-35.704l-50.499 86.297h35.704l39.775-67.975 39.454 67.907h35.717l-50.096-86.23Z"/><path fill="#034ea2" d="m1302.12 127.866 12.497.004h89.63v-25.23h-93.54V93.739h93.485v-5.912h.056V62.368l-.07-.857-.054-1.851c0-13.938-11.302-25.239-25.237-25.239l-1.787.014-12.483-.003h-89.63v25.229h93.54v8.872h-93.62V93.74h.08v6.198l.054.857.07 1.847c0 13.939 11.287 25.237 25.235 25.237l1.774-.014z"/></svg>