<svg xmlns="http://www.w3.org/2000/svg" xmlns:xlink="http://www.w3.org/1999/xlink" width="1187.002pt" height="150.00002pt" viewBox="0 0 1187.002 150.00002"><symbol id="a" transform="translate(-430.868 -728.504)"><path d="M-2147483500-2147483500Z"/></symbol><use xlink:href="#a" width="100%" height="100%" fill="#fff" transform="matrix(25.76 0 0 -28 55319188000 -60129561000)"/><path fill="#ef3b23" d="M111.297 49.85c-12.66 0-21.726 4.145-29.103 14.732-4.718-9.268-14.356-14.733-27.777-14.733-10.197 0-22.292 5.29-27.017 13.603V52.669H0v93.919h28.72V92.555c0-8.508 5.478-16.261 15.5-16.261 10.385 0 15.117 6.993 15.117 15.877v54.417h28.335V92.367c0-8.32 5.48-16.073 15.69-16.073 10.196 0 14.928 6.993 14.928 15.877v54.417h27.777v-60.83c0-25.524-17.008-35.909-34.77-35.909M288.052 65.334v-12.66h-27.777v93.919h28.734V105.59c0-18.704 10.385-25.509 21.914-25.509 2.84 0 5.849.196 9.066.942V52.674c-1.891-.565-4.732-.942-7.551-.942-7.566 0-19.465 3.022-24.386 13.602M329.818 146.592h28.72V52.673h-28.72zM410.515 25.272h-25.697v12.102c0 8.69-4.725 15.299-14.558 15.299h-4.725v25.132h16.631v40.256c0 18.704 11.914 30.233 31.378 30.233 9.06 0 13.791-2.086 14.922-2.645v-23.813c-1.703.384-4.537.956-7.565.956-6.226 0-10.386-2.086-10.386-9.833V77.805h18.335V52.673h-18.335ZM343.982 0c-9.995 0-18.32 8.326-18.32 18.523 0 10.196 8.325 18.53 18.32 18.53 10.399 0 18.732-8.334 18.732-18.53C362.714 8.326 354.38 0 343.982 0M184.292 88.262c.572-7.063 6.679-16.045 18.906-16.045 13.77 0 18.732 8.78 19.11 16.045zm18.536-38.986c-24.657 0-47.395 19.493-47.395 50.07 0 31.922 23.31 50.654 49.496 50.654 21.524 0 35.852-11.013 41.931-25.083l-23.757-9.024c-3.113 5.765-8.752 9.443-17.79 9.443-11.278 0-21.021-7.629-21.608-18.342h66.142c.188-.572.572-4.962.572-8.989 0-30.569-18.173-48.729-47.59-48.729M474.746 121.468l42.908-45.176V52.674H440.75v25.132h39.719l-40.85 43.473v25.314h78.802v-25.125z" style="stroke-width:6.97918"/><path fill="#6d6e71" d="M1048.048 82.796V65.634h17.622v-9.938h-46.014v9.938h17.623v17.162c0 21.44-6.665 34.093-21.007 40.591l4.117 8.933c13.114-5.318 19.521-14.656 22.278-21.195 2.75 6.54 9.157 15.877 22.27 21.195l4.118-8.933c-14.342-6.498-21.007-19.15-21.007-40.59M833.994 102.819h83.353v-9.736h-83.353zM852.37 120.825h46.154v14.928H852.37zm-11.285 24.867h68.731v-34.798h-68.731zM898.526 74.031c0 6.567-1.57 16.261-1.57 16.261h11.292s1.564-11.397 1.564-19.862V54.336h-68.724v9.84h57.438zM621.527 146.592h10.971V52.673h-10.971zM580.21 121.237h-13.874V63.973h13.874zm21.852-36.571h-10.978V54.334h-35.615v76.415h35.615V94.493h10.978v50.955h10.971V53.3h-10.971zM683.958 120.923h-23.43V96.468h32.614V54.334h-43.794v9.939h32.718v22.354h-32.718v44.122l34.582-.055.028.014c12.716 0 21.663-2.276 21.663-2.276v-9.785s-8.975 2.29-21.663 2.29zM713.017 146.592h11.285V52.673h-11.285zM1081.909 146.592h11.3V52.673h-11.3zM738.56 139.955h83.353v-9.736h-83.352zM741.086 101.13v.042l.028-.042 2.45 9.24c15.912-3.05 29.661-10.273 36.633-21.056.007.028.021.042.035.063a.158.158 0 0 0 .056-.063c6.951 10.783 20.707 18.006 36.627 21.056l2.456-9.24.014.042.014-.042c-18.844-4.278-33.207-13.686-33.41-31.804h29.69v-9.841h-29.69V48.102h-11.494v11.383h-29.69v9.84h29.69c-.202 18.119-14.572 27.527-33.41 31.805M969.313 120.677c14.748 0 23.095 4.376 23.095 9.77 0 5.403-8.347 9.779-23.095 9.779-14.719 0-23.08-4.376-23.08-9.778 0-5.395 8.361-9.771 23.08-9.771m-11.697-18.593h23.185v9.87c-3.475-.517-7.3-.79-11.488-.79-4.25 0-8.165.3-11.697.83zm-30.08 0h19.312v12.8c-8.082 3.364-12.444 8.822-12.444 15.564 0 11.509 12.57 19.276 34.91 19.276 22.354 0 34.923-7.767 34.923-19.276 0-6.812-4.431-12.29-12.667-15.647v-12.716h19.318v-9.736h-83.352zM969.313 61.027c14.748 0 23.095 3.775 23.095 8.437 0 4.663-8.347 8.452-23.095 8.452-14.719 0-23.08-3.79-23.08-8.452s8.361-8.437 23.08-8.437m0 26.346c22.355 0 34.924-7.223 34.924-17.909 0-10.685-12.57-17.908-34.923-17.908-22.34 0-34.91 7.223-34.91 17.908 0 10.686 12.57 17.909 34.91 17.909M1103.65 113.084v9.743h36.298v25.007h10.77v-25.007h36.284v-9.743zM1106.171 94.587l.014.042.014-.042 2.45 9.226c16.143-3.475 29.284-10.385 36.682-21.042 7.391 10.657 20.52 17.567 36.669 21.042l2.457-9.226.028.042v-.042c-20.777-5.849-33.41-13.072-33.41-30.409h29.69v-9.847h-70.874v9.847h29.69c0 17.337-12.633 24.56-33.41 30.409" style="stroke-width:6.97918"/></svg>