<svg xmlns="http://www.w3.org/2000/svg" width="389.29858mm" height="52.881443mm" viewBox="0 0 389.29859 52.881443"><path d="M381.512 69.306c-1.717 0-3.26 1.43-3.26 3.126 0 1.78 1.543 3.12 3.26 3.12 1.714 0 3.253-1.34 3.253-3.12 0-1.696-1.539-3.126-3.253-3.126m0 8.76c-3.74 0-6.863-2.426-6.863-5.634 0-3.214 3.122-5.726 6.863-5.726 3.743 0 6.856 2.512 6.856 5.726 0 3.208-3.113 5.634-6.856 5.634m-9.576-24.125v-2.598h19.147v2.598h-7.601c.372 2.747 4.746 4.88 8.857 5.107l-1.54 2.108c-2.802-.12-7.403-1.547-9.287-3.71-1.889 2.163-6.49 3.59-9.29 3.71l-1.548-2.108c4.118-.228 8.493-2.36 8.861-5.107h-7.599m-3 8.645h25.149v2.597h-25.148zM422.564 70.327h-3.4v-2.98h-5.515v-2.565h5.516v-11.25c0-1.287-.201-2.247-.454-2.774h4.082V67.26c0 1.226-.086 2.304-.228 3.067m-15.86 7.159c-.488 0-.91-.438-.91-.906v-4.676c0-1.256-.203-2.25-.466-2.747h4.091v5.729h13.662v2.6h-16.377m4.746-20.123V54.53h-10.088v-2.603h13.718v4.53c0 1.133-.26 2.568-.572 3.62 1.17-.057 2.259-.174 2.939-.322v2.308c-1 .321-2.596.612-4.8.612h-3.339v4.733h-3.662v-4.733h-6.001v-2.57h11.55c.135-.818.255-1.839.255-2.74M211.079 71.799v10.203c0 2.06-.147 3.87-.39 5.146h-5.707V59.953c0-2.144-.32-3.763-.76-4.649h6.857v12.142h6.207v4.353zm-23.963-6.02c-2.785 0-4.881 2.557-4.881 5.773 0 3.237 2.096 5.785 4.881 5.785 2.815 0 4.889-2.548 4.889-5.785 0-3.216-2.074-5.773-4.889-5.773m-3.015 34.341c-.816 0-1.543-.731-1.543-1.531v-8.313c0-2.1-.323-3.763-.775-4.606h6.865v10.095h22.9v4.355zM173.222 65.3v-4.353h10.75v-2.754c0-.93-.167-2.338-.508-3.137h6.801v5.89h10.748V65.3h-5.467c1.489 1.732 2.384 3.908 2.384 6.252 0 5.55-5.01 10.107-10.814 10.107-5.812 0-10.831-4.557-10.831-10.107 0-2.344.901-4.52 2.385-6.252zM247.386 68.084v-6.955H224.15v-4.347h29.316v10.283c0 1.816-.328 3.804-.761 5.383h6.53V76.8h-18.046v7.488h11.802v10.933c0 2.053-.142 3.872-.38 5.128h-5.703V88.662h-22.758V84.29h10.908V76.8H218.39v-4.353h28.597c.256-1.315.398-2.937.398-4.364M272.596 74.39h26.11v4.455h-30.764c-.83 0-1.58-.73-1.58-1.55v-14.76c0-2.168-.33-3.885-.75-4.734h32.86v4.486h-25.876v3.82h25.53v4.21h-25.53zm12.846 13.267v6.734c0 1.865-.147 3.67-.346 4.8h-5.938V87.657h-18.43V83.2h43.14v4.457zM345.908 76.77V94.66c0 2.26-.167 4.226-.411 5.622h-6.221v-38.52c0-2.293-.364-4.083-.852-5.05h7.484v15.33h6.756v4.73zm-20.974-6.308c0 7.429 5.08 15.568 12.239 17.93l-3.115 3.484c-4.672-1.487-9.73-5.383-12.48-10.041-2.77 4.658-7.834 8.554-12.52 10.04l-3.092-3.482c7.136-2.363 12.2-10.502 12.2-17.931v-5.806h-9.107v-4.743h24.999v4.743h-9.124z" style="fill:#231f20;fill-opacity:1;fill-rule:nonzero;stroke:none;stroke-width:2.25889" transform="translate(-33.783 -47.468)"/><path d="M93.42 66.864c.321 0 .881.266 1.647 1.095 3.964 4.313 8.426 7.721 12.173 9.781.54.299.838.518.838.8 0 .215-.032.429-.497.429-.842 0-5.57-.93-6.822-1.518-1.253-.59-3.957-2.783-7.178-8.335-.366-.628-.75-1.17-.75-1.672 0-.501.456-.58.59-.58" style="fill:#659ad2;fill-opacity:1;fill-rule:nonzero;stroke:none;stroke-width:2.25889" transform="translate(-33.783 -47.468)"/><path d="M104.128 50.994s.784 1.548-6.851 2.623c.831-2.358 1.38-3.91 1.38-3.91.488-1.412-.605-2.239-1.394-2.239-.79 0-1.364.605-1.692 1.367l-2.27 5.195c-2.977.2-5.186.095-6.18-.004-1.387-.14-1.742.628-1.742 1.411 0 1.365 2.406 2.75 3.942 2.598.971-.093 1.531-.133 2.32-.214L83.2 77.116c-.32.723-.58 1.88.868 1.88 1.45 0 4.712-1.324 5.254-2.858.233-.646 1.913-5.41 3.786-10.72.924-.184 4.335-.708 5.286-.708.899 0 1.36.404 1.36.884 0 1.11-2.663 4.296-7.83 8.229-.566.431-.097.772.194.772.796 0 4.356-2.44 6.122-3.772 1.938-1.462 5.32-5.272 5.32-7.947 0-1.055-.468-2.022-2.587-2.022-2.053 0-5.676.457-6.449.554.502-1.426.996-2.824 1.46-4.13 3.993-.553 6.378-.912 7.781-1.208 1.932-.41 3.483-1.518 3.483-2.663 0-2.44-3.121-2.413-3.121-2.413M36.21 63.072h-2.427v-2.404h2.426V57.47h3.29v3.198h3.11v2.404h-3.11v5.884c0 1.085.29 2.085 1.542 2.085.59 0 1.15-.121 1.495-.343l.1 2.598c-.687.2-1.448.298-2.431.298-2.575 0-3.996-1.6-3.996-4.098zM45.11 60.667h2.919v2.871h.05c.147-1.179 1.496-3.167 3.457-3.167.316 0 .662 0 1.005.1v3.313c-.291-.171-.883-.27-1.47-.27-2.673 0-2.673 3.334-2.673 5.148v4.635H45.11zM66.177 73.296h-3.115v-1.714h-.045c-1.005 1.224-2.428 2.013-4.145 2.013-2.993 0-4.292-2.112-4.292-4.959v-7.969h3.285v6.74c0 1.55.025 3.635 2.134 3.635 2.377 0 2.896-2.577 2.896-4.192v-6.183h3.284zM77 65.745c-.096-1.594-.834-2.968-2.669-2.968-1.84 0-2.773 1.277-2.923 2.968zm2.21 6.838c-1.206.664-2.575 1.012-4.343 1.012-4.168 0-6.594-2.403-6.594-6.548 0-3.66 1.934-6.675 5.857-6.675 4.69 0 6.011 3.214 6.011 7.628h-8.733c.15 2.04 1.573 3.192 3.606 3.192 1.594 0 2.97-.595 4.197-1.277v2.668M105.862 60.855h2.918v2.864h.045c.151-1.177 1.5-3.162 3.46-3.162.319 0 .663 0 1.006.099v3.312c-.294-.175-.886-.27-1.47-.27-2.675 0-2.675 3.33-2.675 5.146v4.636h-3.285zM115.198 60.855h3.29V73.48h-3.29zm0-5.256h3.29v3.14h-3.29zM129.289 65.93c-.102-1.596-.838-2.968-2.677-2.968-1.84 0-2.77 1.275-2.916 2.969zm2.202 6.84c-1.201.665-2.573 1.01-4.339 1.01-4.17 0-6.598-2.41-6.598-6.55 0-3.658 1.938-6.673 5.864-6.673 4.683 0 6.004 3.212 6.004 7.628h-8.726c.147 2.033 1.57 3.185 3.603 3.185 1.595 0 2.968-.585 4.192-1.27v2.67M134.371 60.855h3.115v1.717h.045c1.033-1.45 2.435-2.015 4.145-2.015 2.998 0 4.297 2.11 4.297 4.96v7.963h-3.287v-6.743c0-1.545-.026-3.63-2.137-3.63-2.374 0-2.889 2.573-2.889 4.195v6.178h-3.291zM154.174 71.225c2.187 0 2.894-2.304 2.894-4.093 0-1.771-.831-4.025-2.941-4.025-2.133 0-2.72 2.329-2.72 4.025 0 1.74.608 4.093 2.767 4.093m3.02.834h-.05c-.979 1.226-2.33 1.72-3.875 1.72-3.874 0-5.297-3.191-5.297-6.647 0-3.483 1.423-6.576 5.297-6.576 1.642 0 2.794.565 3.777 1.77h.051v-7.238h3.287v18.391h-3.187v-1.42" style="fill:#632d00;fill-opacity:1;fill-rule:nonzero;stroke:none;stroke-width:2.25889" transform="translate(-33.783 -47.468)"/></svg>