<svg xmlns="http://www.w3.org/2000/svg" xml:space="preserve" width="1183.8513" height="400" viewBox="0 0 1183.8513 399.99999"><path d="M0 0c0 1.355-.481 2.523-1.444 3.501-.964.981-2.138 1.47-3.526 1.47-1.385 0-2.565-.489-3.547-1.47C-9.494 2.523-9.983 1.355-9.983 0c0-1.354.489-2.517 1.466-3.477.982-.962 2.162-1.448 3.547-1.448 1.388 0 2.562.486 3.526 1.448C-.481-2.517 0-1.354 0 0m4.835-.043a8.254 8.254 0 0 0-.789-3.572 9.432 9.432 0 0 0-2.104-2.89 10.578 10.578 0 0 0-3.116-2.014c-1.175-.495-2.441-.742-3.796-.742a9.837 9.837 0 0 0-3.817.742 10.449 10.449 0 0 0-3.139 2.014 9.424 9.424 0 0 0-2.101 2.89 8.213 8.213 0 0 0-.791 3.572c0 1.264.261 2.445.791 3.544a9.478 9.478 0 0 0 2.101 2.872 10.49 10.49 0 0 0 3.139 2.008 9.803 9.803 0 0 0 3.817.746c1.355 0 2.621-.249 3.796-.746a10.621 10.621 0 0 0 3.116-2.008 9.487 9.487 0 0 0 2.104-2.872 8.088 8.088 0 0 0 .789-3.544m8.628 9.893h-37.045v4.112h16.04v2.622h-13.06v15.854h31.039V28.33h-26.158v-1.987h26.158v-3.751h-26.158v-2.033h26.247v-3.975H-2.619v-2.622h16.082z" style="fill:#fff;fill-opacity:1;fill-rule:nonzero;stroke:none" transform="matrix(5.52777 0 0 -5.52777 607.363 266.689)"/><path d="M266.327 89.588h7.17v-60.3h-7.17zm-13.114-.073h7.03V29.628h-7.03v21.158h-6.825v6.486h6.825V67.62h-6.825v6.555h6.825zm-9.8-52.318h-7.235v41.91h-18.59v6.762h25.825z" style="fill:#fff;fill-opacity:1;fill-rule:nonzero;stroke:none;stroke-width:1.49618" transform="matrix(3.69454 0 0 -3.69454 -83.127 415.848)"/><path d="M0 0v7.683h-7.049v4.291H0v9.488h5.012V0Zm-3.345-10.211c0 1.506-.55 2.802-1.65 3.888-1.101 1.084-2.416 1.626-3.951 1.626-1.507 0-2.804-.542-3.887-1.626-1.084-1.086-1.625-2.382-1.625-3.888 0-1.536.541-2.84 1.625-3.908 1.083-1.066 2.38-1.602 3.887-1.602 1.535 0 2.85.536 3.951 1.602 1.1 1.068 1.65 2.372 1.65 3.908m4.923-.046a8.962 8.962 0 0 0-.834-3.817 10.6 10.6 0 0 0-2.237-3.14 10.453 10.453 0 0 0-3.322-2.147 10.707 10.707 0 0 0-4.087-.791c-1.417 0-2.771.268-4.067.791-1.295.528-2.407 1.244-3.343 2.147-.934.904-1.68 1.95-2.236 3.14a8.877 8.877 0 0 0-.837 3.817 8.85 8.85 0 0 0 .837 3.817 10.501 10.501 0 0 0 2.236 3.142c.936.903 2.048 1.62 3.343 2.144 1.296.528 2.65.793 4.067.793 1.445 0 2.806-.265 4.087-.793a10.378 10.378 0 0 0 3.322-2.144A10.557 10.557 0 0 0 .744-6.44a8.936 8.936 0 0 0 .834-3.817m-32.167 24.175v4.199h9.444v3.841h5.329v-3.841h8.992v-4.199h-9.803L-6.461 3.614-9.714.542l-8.766 9.127-8.674-9.85-3.343 3.118 10.208 10.981z" style="fill:#fff;fill-opacity:1;fill-rule:nonzero;stroke:none" transform="matrix(5.52777 0 0 -5.52777 1156.146 203.497)"/><path d="M0 0c0-29.955-24.283-54.24-54.238-54.24-29.959 0-54.241 24.285-54.241 54.24 0 29.961 24.282 54.246 54.241 54.246C-24.283 54.246 0 29.961 0 0" style="fill:#fff;fill-opacity:1;fill-rule:nonzero;stroke:none" transform="matrix(3.68711 0 0 -3.68711 399.974 200.011)"/><path d="M0 0c-8.489 5.771-19.358 3.418-25.061-5.258a17.744 17.744 0 0 0-14.749-8.149c-9.077 0-15.291 6.387-17.126 12.995h-.007c-.021.067-.036.122-.054.187-.015.074-.042.145-.054.225-.724 2.756-.903 4.074-.903 7.005 0 15.803 16.212 33.397 39.565 33.397 23.913 0 37.599-18.204 41.127-28.323l-.181.54C15.776 32.405-2.998 46.635-25.088 46.635c-27.805 0-50.356-22.543-50.356-50.354 0-24.86 17.926-46.14 42.796-46.14 19.837 0 33.166 11.124 39.287 26.447C9.997-15.025 7.614-5.174 0 0" style="fill:#003863;fill-opacity:1;fill-rule:nonzero;stroke:none" transform="matrix(3.68711 0 0 -3.68711 292.54 186.305)"/><path d="M0 0c-2.938 9.873-16.724 29.304-41.436 29.304-23.354 0-39.565-17.594-39.565-33.397 0-2.932.179-4.249.902-7.005a14.477 14.477 0 0 0-.466 3.592c0 16.457 16.484 27.862 33.42 27.862 22.938 0 41.518-18.59 41.518-41.519 0-17.973-10.34-33.531-25.367-41.007v-.012c19.37 7.017 33.205 25.57 33.205 47.365C2.211-9.663 1.523-5.112 0 0" style="fill:#e4032e;fill-opacity:1;fill-rule:nonzero;stroke:none" transform="matrix(3.68711 0 0 -3.68711 377.518 145.385)"/></svg>