<svg width="105" height="27" viewBox="0 0 105 27" fill="none" xmlns="http://www.w3.org/2000/svg">
<g id="Layer_1" clip-path="url(#clip0_100_1139)">
<path id="Vector" fill-rule="evenodd" clip-rule="evenodd" d="M59.7283 0C54.9018 0 52.1957 3.2925 50.9072 5.5041C50.2605 2.86911 48.087 0 43.5141 0C38.9413 0 36.3569 2.67734 34.7489 5.3223V0.244073H29.1362V26.9875H34.8732V15.5883C34.8732 10.936 37.0518 4.38585 41.8985 4.38585C45.15 4.38585 45.3985 6.74191 45.3985 10.0693V26.9875H51.1482V15.0553C51.1482 11.3444 53.1949 4.38585 58.1178 4.38585C61.4098 4.38585 61.6786 6.87889 61.6786 9.43169V26.9875H67.4384V7.68084C67.4384 2.94382 64.4786 0 59.7283 0Z" fill="#40415F"/>
<path id="Vector_2" fill-rule="evenodd" clip-rule="evenodd" d="M91.8827 0.236328H84.9866L71.925 26.9997H78.4254C78.4254 26.9997 81.5957 19.944 81.862 19.3637H94.1399C94.4011 19.944 97.5765 26.9997 97.5765 26.9997H105.003L91.8827 0.236328ZM83.4294 15.8645C83.9722 14.6591 87.3479 7.12767 88.0453 5.56859C88.7403 7.13016 92.0805 14.6616 92.6182 15.8645H83.4294Z" fill="#40415F"/>
<path id="Vector_3" fill-rule="evenodd" clip-rule="evenodd" d="M10.6851 12.371C11.4181 11.6612 23.0746 0.244546 23.0746 0.244546H16.0772C16.0772 0.244546 7.41341 9.04364 5.76232 10.7173L5.7471 10.7297V0.125H0V26.9855H5.7471V14.6897L5.76232 14.7022C7.28913 16.4381 16.6098 26.983 16.6098 26.983H24.0054C24.0054 26.983 11.3851 13.1381 10.6851 12.371Z" fill="#40415F"/>
</g>
<defs>
<clipPath id="clip0_100_1139">
<rect width="105" height="27" fill="white"/>
</clipPath>
</defs>
</svg>
