<svg xmlns="http://www.w3.org/2000/svg" width="70.010002mm" height="41.09mm" viewBox="0 0 70.010003 41.09"><defs><linearGradient id="b" x1="0" x2="1" y1="0" y2="0" gradientTransform="rotate(179.453 129.876 218.807) scale(40.88661)" gradientUnits="userSpaceOnUse" spreadMethod="pad"><stop offset="0" style="stop-opacity:1;stop-color:#e70"/><stop offset="0.0996612" style="stop-opacity:1;stop-color:#e70"/><stop offset="0.44032139" style="stop-opacity:1;stop-color:#e70"/><stop offset="0.999661" style="stop-opacity:1;stop-color:#c8171e"/><stop offset="1" style="stop-opacity:1;stop-color:#c8171e"/></linearGradient><linearGradient id="d" x1="0" x2="1" y1="0" y2="0" gradientTransform="scale(36.61634) rotate(-.546 1370.882 -745.993)" gradientUnits="userSpaceOnUse" spreadMethod="pad"><stop offset="0" style="stop-opacity:1;stop-color:#22aee6"/><stop offset="0.05557917" style="stop-opacity:1;stop-color:#22aee6"/><stop offset="1" style="stop-opacity:1;stop-color:#0054a7"/></linearGradient><linearGradient id="f" x1="0" x2="1" y1="0" y2="0" gradientTransform="rotate(-.546 45372.524 -27612.73) scale(54.0862)" gradientUnits="userSpaceOnUse" spreadMethod="pad"><stop offset="0" style="stop-opacity:1;stop-color:#8ec31f"/><stop offset="0.37851141" style="stop-opacity:1;stop-color:#8ec31f"/><stop offset="1" style="stop-opacity:1;stop-color:#008e51"/></linearGradient><clipPath id="a" clipPathUnits="userSpaceOnUse"><path d="M222.786 467.221c-1.206-5.534-.642-53.095-.211-58.6.303-4.047 2.007-6.408 6.748-6.311 33.071.532 41.743 40.616 21.316 59.477-3.27 3.014-7.254 5.491-12.052 7.177-2.408.849-6.382 2.088-9.772 2.088-2.911 0-5.396-.927-6.029-3.831"/></clipPath><clipPath id="c" clipPathUnits="userSpaceOnUse"><path d="M263.213 504.905c-1.086-5.009-.57-48.196-.191-53.207.287-3.656 1.825-5.797 6.129-5.734 30.032.501 37.918 36.895 19.374 54.018-2.969 2.734-6.618 4.985-10.937 6.509-2.198.786-5.799 1.904-8.878 1.904-2.662 0-4.912-.86-5.497-3.49"/></clipPath><clipPath id="e" clipPathUnits="userSpaceOnUse"><path d="M269.975 466.034c-1.394-6.306-.724-60.558-.235-66.852.368-4.623 2.279-7.29 7.685-7.209 37.741.599 47.668 46.343 24.363 67.869-3.725 3.436-8.322 6.27-13.748 8.18-2.772.987-7.306 2.389-11.156 2.389-3.337 0-6.187-1.058-6.909-4.377"/></clipPath></defs><path d="M50.59 22.798c0 3.886-2.579 6.396-6.455 6.396h-3.409V16.378h3.409c3.993 0 6.456 2.414 6.456 6.42m-6.369-9.252h-6.76v18.481h6.762c5.581 0 9.63-3.872 9.63-9.207 0-5.547-3.871-9.277-9.632-9.274M61.432 21.13c-.6.145-.96.51-1.054 1.07-.073.428.025.88.259 1.207.187.258.447.427.75.473.422.072.888.093 1.38.114 1.454.066 2.994.13 3.682 1.419a2.444 2.444 0 0 1-.152 2.482c-.514.745-1.524 1.195-3.003 1.282-.191.011-.386.017-.597.017h-4.115l-.002-12.816h3.73c2.456 0 3.448.707 3.448 2.206.002.823-.313 1.582-.934 2.029-.56.405-1.372.416-2.156.424-.35.005-.847.011-1.236.094m5.591 1.332c1.206-.82 2-2.456 2-4.175 0-2.971-2.384-4.745-6.375-4.742h-7.33v18.481h7.46c4.51 0 7.201-1.976 7.201-5.28 0-1.977-.968-3.381-2.956-4.284" style="fill:#007f41;fill-opacity:1;fill-rule:nonzero;stroke:none;stroke-width:.352778"/><g clip-path="url(#a)" transform="matrix(.35278 0 0 -.35278 -78.338 179.35)"><path d="M222.786 467.221c-1.206-5.534-.642-53.095-.211-58.6.303-4.047 2.007-6.408 6.748-6.311 33.071.532 41.743 40.616 21.316 59.477-3.27 3.014-7.254 5.491-12.052 7.177-2.408.849-6.382 2.088-9.772 2.088-2.911 0-5.396-.927-6.029-3.831" style="fill:url(#b);stroke:none"/></g><g clip-path="url(#c)" transform="matrix(.35278 0 0 -.35278 -78.338 179.35)"><path d="M263.213 504.905c-1.086-5.009-.57-48.196-.191-53.207.287-3.656 1.825-5.797 6.129-5.734 30.032.501 37.918 36.895 19.374 54.018-2.969 2.734-6.618 4.985-10.937 6.509-2.198.786-5.799 1.904-8.878 1.904-2.662 0-4.912-.86-5.497-3.49" style="fill:url(#d);stroke:none"/></g><g clip-path="url(#e)" transform="matrix(.35278 0 0 -.35278 -78.338 179.35)"><path d="M269.975 466.034c-1.394-6.306-.724-60.558-.235-66.852.368-4.623 2.279-7.29 7.685-7.209 37.741.599 47.668 46.343 24.363 67.869-3.725 3.436-8.322 6.27-13.748 8.18-2.772.987-7.306 2.389-11.156 2.389-3.337 0-6.187-1.058-6.909-4.377" style="fill:url(#f);stroke:none"/></g></svg>