<?xml version="1.0" encoding="UTF-8"?> <svg xmlns="http://www.w3.org/2000/svg" xmlns:xlink="http://www.w3.org/1999/xlink" viewBox="0 0 237.47 42.1"><defs><style>.cls-1{fill:#fff;fill-rule:evenodd;}.cls-2{fill:url(#linear-gradient);}</style><linearGradient id="linear-gradient" y1="21.05" x2="40.74" y2="21.05" gradientUnits="userSpaceOnUse"><stop offset="0" stop-color="#008fbe"></stop><stop offset="1" stop-color="#87e1d1"></stop></linearGradient></defs><g id="Layer_2" data-name="Layer 2"><g id="Layer_1-2" data-name="Layer 1"><path class="cls-1" d="M235.5,30.88a1.58,1.58,0,0,1-1.15-.47,1.55,1.55,0,0,1-.46-1.14V13.91a1.61,1.61,0,0,1,.46-1.16,1.56,1.56,0,0,1,1.15-.49,1.61,1.61,0,0,1,1.65,1.65V29.27a1.53,1.53,0,0,1-.49,1.14A1.62,1.62,0,0,1,235.5,30.88Zm-.07-22.16a1.76,1.76,0,0,1-1.29-.54,1.73,1.73,0,0,1-.54-1.29V6.75a1.83,1.83,0,0,1,1.83-1.82h.21a1.83,1.83,0,0,1,1.83,1.82v.14a1.73,1.73,0,0,1-.54,1.29,1.76,1.76,0,0,1-1.29.54ZM219.64,28.19a6.36,6.36,0,0,0,3-.77,8.33,8.33,0,0,0,2.47-1.91v-3h-3.9q-5.4,0-5.4,2.83a2.65,2.65,0,0,0,.88,2.08A4.33,4.33,0,0,0,219.64,28.19Zm-1.21,2.87a6.65,6.65,0,0,1-2.92-.65,5,5,0,0,1-2.13-1.88,5.12,5.12,0,0,1-.79-2.84,5,5,0,0,1,2.09-4.23,10.13,10.13,0,0,1,6.14-1.57h4.33V19.6A4.34,4.34,0,0,0,224,16.2a5.33,5.33,0,0,0-3.63-1,12.48,12.48,0,0,0-2.42.22,21.08,21.08,0,0,0-2.34.64,1.9,1.9,0,0,1-.47.07,1.27,1.27,0,0,1-.93-.39,1.31,1.31,0,0,1-.39-1,1.39,1.39,0,0,1,.93-1.36,15.89,15.89,0,0,1,6.19-1.28,8,8,0,0,1,4.17,1,6.36,6.36,0,0,1,2.51,2.59,7.65,7.65,0,0,1,.8,3.46V29.27a1.53,1.53,0,0,1-.48,1.14,1.62,1.62,0,0,1-1.16.47,1.6,1.6,0,0,1-1.62-1.61v-.93A9,9,0,0,1,218.43,31.06Zm-12.32-.25a1.93,1.93,0,0,1-1.41-.59,2,2,0,0,1-.59-1.42v-.21a2,2,0,0,1,.59-1.42,1.93,1.93,0,0,1,1.41-.59h.36a2,2,0,0,1,2,2v.21a2,2,0,0,1-2,2ZM189.9,28a6.7,6.7,0,0,0,3.09-.73,8.84,8.84,0,0,0,2.56-2V17.81A8.84,8.84,0,0,0,193,15.86a6.7,6.7,0,0,0-3.09-.73,5.62,5.62,0,0,0-4.26,1.68A6.62,6.62,0,0,0,184,21.57a6.62,6.62,0,0,0,1.61,4.76A5.62,5.62,0,0,0,189.9,28Zm-.47,3a8.38,8.38,0,0,1-4.2-1.13A8.49,8.49,0,0,1,182,26.64a10,10,0,0,1-1.24-5.07A10,10,0,0,1,182,16.51a8.45,8.45,0,0,1,3.22-3.3,8.37,8.37,0,0,1,4.2-1.12,8.2,8.2,0,0,1,6.12,2.72V6A1.56,1.56,0,0,1,196,4.85a1.61,1.61,0,0,1,1.16-.46,1.55,1.55,0,0,1,1.15.48A1.61,1.61,0,0,1,198.81,6V29.27a1.55,1.55,0,0,1-.46,1.14,1.58,1.58,0,0,1-1.15.47,1.62,1.62,0,0,1-1.16-.47,1.5,1.5,0,0,1-.49-1.14v-.93A8.23,8.23,0,0,1,189.43,31.06Zm-14.85-.18a1.58,1.58,0,0,1-1.15-.47,1.55,1.55,0,0,1-.46-1.14V6a1.61,1.61,0,0,1,.46-1.17,1.55,1.55,0,0,1,1.15-.48,1.59,1.59,0,0,1,1.18.46A1.62,1.62,0,0,1,176.23,6V29.27a1.53,1.53,0,0,1-.49,1.14A1.62,1.62,0,0,1,174.58,30.88Zm-15.32-2.79a6.16,6.16,0,0,0,2.81-.68,5.57,5.57,0,0,0,2.22-2.15,7.21,7.21,0,0,0,.88-3.72,7.15,7.15,0,0,0-.88-3.69,5.39,5.39,0,0,0-2.22-2.13,6.27,6.27,0,0,0-2.81-.66,6.41,6.41,0,0,0-2.85.66,5.28,5.28,0,0,0-2.2,2.13,7.25,7.25,0,0,0-.86,3.69,7.31,7.31,0,0,0,.86,3.72,5.46,5.46,0,0,0,2.2,2.15A6.29,6.29,0,0,0,159.26,28.09Zm0,3a9.65,9.65,0,0,1-4.83-1.18,8,8,0,0,1-3.2-3.35,10.48,10.48,0,0,1-1.13-5,10.51,10.51,0,0,1,1.13-5,7.93,7.93,0,0,1,3.2-3.34,10.41,10.41,0,0,1,9.63,0,8.16,8.16,0,0,1,3.22,3.34,10.52,10.52,0,0,1,1.14,5,10.49,10.49,0,0,1-1.14,5,8.25,8.25,0,0,1-3.22,3.35A9.65,9.65,0,0,1,159.26,31.06Zm-17.72-.18a1.6,1.6,0,0,1-1.61-1.61v-14h-2.11a1.44,1.44,0,0,1-1.4-1.4,1.3,1.3,0,0,1,.42-1,1.34,1.34,0,0,1,1-.4h2.11V10.37a7.21,7.21,0,0,1,.77-3.53,4.72,4.72,0,0,1,2-2,5.6,5.6,0,0,1,2.59-.63,6.88,6.88,0,0,1,3.12.72,1.62,1.62,0,0,1,.59.52,1.29,1.29,0,0,1,.23.73,1.32,1.32,0,0,1-.4,1,1.25,1.25,0,0,1-.93.41,3.5,3.5,0,0,1-.82-.11l-1-.11a3.17,3.17,0,0,0-2.2.68,3.31,3.31,0,0,0-.73,2.47v2h4.47a1.41,1.41,0,0,1,1,2.38,1.34,1.34,0,0,1-1,.42h-4.47v14a1.53,1.53,0,0,1-.48,1.14A1.64,1.64,0,0,1,141.54,30.88Zm-10.34.18c-3.48,0-5.23-1.58-5.23-4.73V15.24h-2.54a.68.68,0,0,1-.68-.68.75.75,0,0,1,.32-.61l4.87-4.76a.91.91,0,0,1,.61-.33.61.61,0,0,1,.48.22.72.72,0,0,1,.2.5v2.86h4.05a1.33,1.33,0,0,1,1,.4,1.35,1.35,0,0,1,.39,1,1.37,1.37,0,0,1-.39,1,1.31,1.31,0,0,1-1,.42h-4.05V26.05q0,1.39.66,1.77a3.36,3.36,0,0,0,1.67.37A5.1,5.1,0,0,0,133,28l.3-.07a1.62,1.62,0,0,1,.41,0,1.27,1.27,0,0,1,.9.38,1.21,1.21,0,0,1,.39.91,1.34,1.34,0,0,1-.82,1.25A7,7,0,0,1,131.2,31.06Zm-26.06-.18a1.6,1.6,0,0,1-1.61-1.61V6A1.62,1.62,0,0,1,104,4.87a1.53,1.53,0,0,1,1.14-.48A1.66,1.66,0,0,1,106.79,6v9.34a11.89,11.89,0,0,1,2.93-2.4,7.38,7.38,0,0,1,3.73-.89,6.07,6.07,0,0,1,3.41.93,6,6,0,0,1,2.22,2.54,8,8,0,0,1,.77,3.54V29.27a1.53,1.53,0,0,1-.48,1.14,1.62,1.62,0,0,1-1.16.47,1.59,1.59,0,0,1-1.61-1.61V19.46c0-2.91-1.32-4.37-3.94-4.37a5.67,5.67,0,0,0-3.2.93,11.37,11.37,0,0,0-2.67,2.51V29.27a1.5,1.5,0,0,1-.49,1.14A1.6,1.6,0,0,1,105.14,30.88Zm-16-3.15a6,6,0,0,0,3-.72,10.85,10.85,0,0,0,2.47-1.93V17.71a10.63,10.63,0,0,0-2.47-1.94,6.66,6.66,0,0,0-7.36.92,6.21,6.21,0,0,0-1.7,4.7,6.25,6.25,0,0,0,1.7,4.71A6.13,6.13,0,0,0,89.18,27.73Zm.28,11.56a16.77,16.77,0,0,1-4.18-.54,13.85,13.85,0,0,1-3.47-1.32,1.36,1.36,0,0,1-.65-1.25,1.45,1.45,0,0,1,.41-1,1.34,1.34,0,0,1,1-.45,1.91,1.91,0,0,1,.65.14,13,13,0,0,0,5.9,1.36q5.48,0,5.48-5.83V28A8.08,8.08,0,0,1,88.5,30.7a8.55,8.55,0,0,1-4.1-1.06,8.43,8.43,0,0,1-3.27-3.15,9.51,9.51,0,0,1-1.29-5.1,9.56,9.56,0,0,1,1.29-5.1,8.6,8.6,0,0,1,7.37-4.2,8,8,0,0,1,6.12,2.72v-.9a1.61,1.61,0,0,1,.46-1.16,1.56,1.56,0,0,1,1.15-.49,1.67,1.67,0,0,1,1.65,1.65v16c0,3-.73,5.32-2.19,7A7.93,7.93,0,0,1,89.46,39.29ZM73.64,30.88A1.6,1.6,0,0,1,72,29.27V13.91a1.62,1.62,0,0,1,.47-1.16,1.53,1.53,0,0,1,1.14-.49,1.62,1.62,0,0,1,1.19.47,1.59,1.59,0,0,1,.46,1.18V29.27a1.53,1.53,0,0,1-.48,1.14A1.62,1.62,0,0,1,73.64,30.88ZM73.57,8.72a1.83,1.83,0,0,1-1.82-1.83V6.75a1.79,1.79,0,0,1,.53-1.29,1.75,1.75,0,0,1,1.29-.53h.22a1.75,1.75,0,0,1,1.29.53,1.79,1.79,0,0,1,.53,1.29v.14a1.83,1.83,0,0,1-1.82,1.83Zm-9,11.35a5.72,5.72,0,0,0-.92-2.94,4.82,4.82,0,0,0-2-1.73,5.42,5.42,0,0,0-4.8,0,4.79,4.79,0,0,0-2,1.73A5.9,5.9,0,0,0,54,20.07Zm-4.58,11a9.12,9.12,0,0,1-6.82-2.49,9.52,9.52,0,0,1-2.45-7,11.69,11.69,0,0,1,.93-4.69,7.94,7.94,0,0,1,2.86-3.47,8.26,8.26,0,0,1,4.76-1.32,8.34,8.34,0,0,1,4.58,1.23,8,8,0,0,1,2.94,3.29,10.27,10.27,0,0,1,1,4.5,1.58,1.58,0,0,1-.45,1.14,1.6,1.6,0,0,1-1.2.47H54a5.88,5.88,0,0,0,1.86,3.9A6.42,6.42,0,0,0,60.22,28a10.82,10.82,0,0,0,2.63-.28,10.67,10.67,0,0,0,2.2-.83,1.55,1.55,0,0,1,.65-.14,1.45,1.45,0,0,1,1,.39,1.31,1.31,0,0,1,.43,1,1.55,1.55,0,0,1-.93,1.32,11.28,11.28,0,0,1-6.26,1.58Z"></path><path class="cls-2" d="M31.15.13a3.18,3.18,0,0,1,.9,2.44,3.14,3.14,0,0,1-1.22,2.28,7,7,0,0,1,5.36,7.58,6.85,6.85,0,0,1-6.77,6.26h-.73a3.17,3.17,0,0,1,1,2.36,3.14,3.14,0,0,1-1,2.36h.73a11.25,11.25,0,0,0,9.43-5.23,12.05,12.05,0,0,0,1-11A11.36,11.36,0,0,0,31.15.13ZM8.69,39.74a3.16,3.16,0,0,1,1.23-2.5A7,7,0,0,1,4.6,29.67a6.87,6.87,0,0,1,6.73-6.27h3.23a3.19,3.19,0,0,1,0-4.71H11.33A11.5,11.5,0,0,0,0,29.5,11.63,11.63,0,0,0,9.6,42,3.18,3.18,0,0,1,8.69,39.74ZM26.86,23.4h-4.2v7a11.53,11.53,0,0,1-11,11.7,2.36,2.36,0,0,1-.08-4.72h.14a6.9,6.9,0,0,0,6.4-7v-7H16.4a2.36,2.36,0,0,1,0-4.71h1.7v-7A11.51,11.51,0,0,1,29.16,0,2.33,2.33,0,0,1,31.4,2.41a2.33,2.33,0,0,1-2.34,2.31,6.88,6.88,0,0,0-6.4,7v7h4.2a2.36,2.36,0,0,1,0,4.72Z"></path></g></g></svg> 