<svg width="59" height="83" viewBox="0 0 59 83" fill="none" xmlns="http://www.w3.org/2000/svg">
<path d="M47.6483 76.2659L29.9426 65.6241L11.3516 76.2659V21.9902H47.6483V76.2659Z" fill="#E6DCB2"/>
<path d="M47.6483 76.2659L29.9426 65.6241L11.3516 76.2659V21.9902H47.6483V76.2659Z" fill="#E6DCB2"/>
<mask id="mask0_18_2" style="mask-type:luminance" maskUnits="userSpaceOnUse" x="11" y="21" width="37" height="56">
<path d="M47.6483 76.2659L29.9426 65.6241L11.3516 76.2659V21.9902H47.6483V76.2659Z" fill="white"/>
</mask>
<g mask="url(#mask0_18_2)">
<path d="M18.6338 19.1499H15.521V83.0003H18.6338V19.1499Z" fill="white"/>
<path d="M43.4931 19.1499H40.3804V83.0003H43.4931V19.1499Z" fill="white"/>
</g>
<path d="M59 28.5027L57.7863 31.0523L58.5002 33.7681L56.8296 36.0544L57.0152 38.8534L54.9305 40.7933L54.5878 43.5785L52.1605 45.1165L51.3037 47.7908L48.6336 48.8716L47.2771 51.3519L44.4499 51.9477L42.6508 54.1371L39.7665 54.2202L37.5675 56.0492L34.726 55.6058L32.2272 57.0192L29.5 56.0631L26.7727 57.0192L24.274 55.6058L21.4182 56.0492L19.2335 54.2202L16.3492 54.1371L14.5501 51.9477L11.7229 51.3519L10.3664 48.8716L7.69627 47.7908L6.82527 45.1165L4.41215 43.5785L4.06946 40.7933L1.98475 38.8534L2.17038 36.0544L0.499758 33.7681L1.2137 31.0523L0 28.5027L1.2137 25.9669L0.499758 23.2511L2.17038 20.9648L1.98475 18.1658L4.06946 16.212L4.41215 13.4407L6.82527 11.8888L7.69627 9.21452L10.3664 8.13372L11.7229 5.65342L14.5501 5.07145L16.3492 2.88214L19.2335 2.799L21.4182 0.96995L24.274 1.41336L26.7727 0L29.5 0.942237L32.2272 0L34.726 1.41336L37.5818 0.96995L39.7665 2.799L42.6508 2.88214L44.4499 5.07145L47.2771 5.66728L48.6336 8.13372L51.3037 9.21452L52.1605 11.9027L54.5878 13.4407L54.9305 16.2259L57.0152 18.1658L56.8296 20.9648L58.5002 23.2511L57.7863 25.9669L59 28.5027Z" fill="#E6DCB2"/>
<path d="M53.8452 28.5026C53.8452 41.5554 42.9505 52.1279 29.4999 52.1279C16.0493 52.1279 5.15454 41.5554 5.15454 28.5026C5.15454 15.4499 16.0493 4.87744 29.4999 4.87744C42.9505 4.87744 53.8452 15.4499 53.8452 28.5026Z" fill="white"/>
<path d="M29.4998 49.121C17.7912 49.121 8.25293 39.8788 8.25293 28.5026C8.25293 17.1265 17.7769 7.88428 29.4998 7.88428C41.2227 7.88428 50.7466 17.1265 50.7466 28.5026C50.7466 39.8788 41.2227 49.121 29.4998 49.121ZM29.4998 9.49162C18.6907 9.49162 9.89499 18.0272 9.89499 28.5165C9.89499 39.0058 18.6907 47.5414 29.4998 47.5414C40.3088 47.5414 49.1046 39.0058 49.1046 28.5165C49.1046 18.0272 40.3088 9.49162 29.4998 9.49162Z" fill="#E6DCB2"/>
</svg>
