<svg width="17" height="22" viewBox="0 0 17 22" fill="none" xmlns="http://www.w3.org/2000/svg">
<g id="Group 113">
<path id="Arrow 3" d="M9.5 1.75C9.5 1.19772 9.05228 0.75 8.5 0.75C7.94772 0.75 7.5 1.19772 7.5 1.75L9.5 1.75ZM7.79289 16.4571C8.18342 16.8476 8.81658 16.8476 9.20711 16.4571L15.5711 10.0931C15.9616 9.70262 15.9616 9.06946 15.5711 8.67893C15.1805 8.28841 14.5474 8.28841 14.1569 8.67893L8.5 14.3358L2.84315 8.67893C2.45262 8.28841 1.81946 8.28841 1.42893 8.67893C1.03841 9.06946 1.03841 9.70262 1.42893 10.0931L7.79289 16.4571ZM7.5 1.75L7.5 15.75L9.5 15.75L9.5 1.75L7.5 1.75Z" fill="white"/>
<path id="Line 40" d="M1.5 20.25H15.5" stroke="white" stroke-width="2" stroke-linecap="round"/>
</g>
</svg>
