<?xml version="1.0" encoding="UTF-8"?>
<svg id="_레이어_1" data-name="레이어_1" xmlns="http://www.w3.org/2000/svg" xmlns:xlink="http://www.w3.org/1999/xlink" viewBox="0 0 62.67 60">
  <defs>
    <style>
      .cls-1 {
        fill: none;
      }

      .cls-2 {
        fill: rgba(205, 184, 99, .5);
      }

      .cls-3 {
        clip-path: url(#clippath-1);
      }

      .cls-4 {
        clip-path: url(#clippath);
      }
    </style>
    <clipPath id="clippath">
      <rect class="cls-1" width="27" height="60"/>
    </clipPath>
    <clipPath id="clippath-1">
      <rect class="cls-1" x="34.71" y="0" width="27" height="60"/>
    </clipPath>
  </defs>
  <g class="cls-4">
    <g>
      <path class="cls-2" d="M17.83,4.43c.82-.02,1.81-.16,2.48-.73.25-.18.46-.4.63-.64.32-.46.51-1.01.63-1.5,0-.05.02-.1.03-.15.05-.27.09-.5.12-.69.04-.28.05-.46.05-.46-.15-.04-.23-.06-.32-.09-.13-.03-.27-.06-.45-.09-.09-.01-.19-.02-.28-.04-.09,0-.18-.01-.27-.02-.54-.04-1.19,0-1.82.19-.33.1-.66.24-.94.45-.78.66-1.11,1.64-1.22,2.41,0,.09-.02.18-.03.26,0,.1-.02.18-.02.27s-.12.25-.25.44c-.12.2-.25.43-.35.59-.15.26-.17.38-.16.44.02.1.25-.1.52-.3.27-.2.58-.38.74-.36.2.01.46.03.74.03h.16v-.02Z"/>
      <path class="cls-2" d="M15.23,8.39c.26.11.55.21.85.3.55.14,1.17.23,1.75.13.31-.05.59-.16.84-.3.47-.27.83-.65,1.1-1.02.24-.29.37-.46.46-.6.14-.2.21-.34.21-.34-.11-.1-.17-.16-.24-.22-.09-.08-.21-.18-.35-.28-.07-.05-.15-.1-.23-.16-.07-.04-.15-.1-.22-.15-.44-.28-.99-.55-1.59-.67-.32-.07-.66-.09-.96-.01-.6.12-1.12.46-1.55.86-.23.21-.44.44-.61.66-.05.07-.11.15-.16.21-.05.08-.12.16-.15.24-.08.16-.68.47-1.01.67-.26.16-.34.26-.37.31-.03.09.27.02.62-.02.34-.04.7-.07.83,0,.17.1.39.21.65.33.05.02.09.04.15.07h0Z"/>
      <path class="cls-2" d="M11.91,13.43c.29.06.6.1.92.12.64.04,1.32,0,1.92-.22.31-.12.59-.29.81-.48.44-.37.72-.84,1-1.23.02-.04.05-.08.08-.13.13-.21.23-.41.3-.58.1-.23.16-.38.16-.38-.13-.08-.21-.13-.3-.18-.12-.06-.26-.14-.42-.21-.09-.04-.17-.08-.27-.12-.09-.04-.17-.07-.27-.1-.52-.19-1.14-.36-1.79-.35-.34,0-.7.05-1.04.17-.66.22-1.11.71-1.5,1.2-.2.26-.36.53-.49.79-.05.09-.09.17-.13.25-.04.1-.09.18-.13.27-.09.16-.65.61-.96.89-.24.22-.31.34-.32.4-.02.1.3-.04.64-.16.34-.13.73-.23.87-.18.2.06.45.13.74.19.05.01.11.02.16.04h0Z"/>
      <path class="cls-2" d="M9.59,19.51c.31-.01.63-.04.97-.1.64-.12,1.37-.31,1.96-.69.31-.19.56-.43.77-.67.2-.24.35-.49.47-.74.12-.25.27-.49.36-.72.02-.04.04-.1.05-.14.09-.24.16-.47.2-.64.06-.26.09-.42.09-.42-.16-.05-.24-.08-.34-.11-.13-.04-.3-.08-.49-.13-.09-.02-.2-.04-.31-.07-.09-.01-.2-.03-.3-.05-.58-.08-1.27-.11-1.95.04-.36.08-.73.21-1.07.41-.64.38-1.04,1-1.35,1.59-.16.31-.27.62-.37.91-.03.1-.06.2-.09.29-.03.1-.05.21-.06.31-.02.19-.54.8-.81,1.16-.21.29-.27.43-.27.49,0,.11.31-.11.64-.32.34-.21.72-.41.88-.41.22.01.5.02.81.01h.18Z"/>
      <path class="cls-2" d="M8.67,26.56c.33-.1.67-.23,1.03-.38.65-.29,1.29-.68,1.76-1.21.27-.28.5-.58.67-.89.33-.58.47-1.18.52-1.71.02-.05.02-.1.03-.16.05-.27.09-.51.1-.7.02-.27.02-.45.02-.45-.18-.01-.27-.02-.38-.03-.14,0-.33-.01-.53,0-.1,0-.21,0-.33,0-.1,0-.21.01-.32.02-.62.06-1.35.2-2.04.52-.38.17-.68.41-.97.7-.54.55-.88,1.26-1.08,1.96-.13.37-.13.75-.15,1.09v.32c0,.12,0,.23,0,.34,0,.21-.42.97-.62,1.43-.16.36-.16.52-.15.58.03.11.09.04.19-.08.1-.12.22-.27.38-.44.31-.32.67-.63.84-.66.23-.04.52-.11.84-.21.06-.01.13-.04.19-.05h0Z"/>
      <path class="cls-2" d="M9.63,34.07c.27-.18.55-.38.82-.61.57-.49,1.24-1.11,1.63-1.82.2-.37.34-.74.42-1.1.06-.34.13-.68.17-1s.04-.63.02-.91c0-.06,0-.11,0-.17-.02-.3-.06-.55-.11-.75-.04-.15-.05-.26-.06-.34-.2-.1-.31-.08-.42-.06-.15.03-.34.07-.55.13-.11.03-.22.06-.34.1-.11.03-.21.07-.31.1-.6.22-1.29.56-1.89,1.08-.31.27-.61.61-.85.99-.51.77-.61,1.64-.6,2.45,0,.38.04.74.09,1.06.02.12.04.24.05.35.02.13.06.24.1.35.07.21-.13,1.13-.2,1.67-.05.42-.04.6-.02.66.05.11.23-.3.45-.72.22-.42.49-.84.64-.92.22-.11.49-.26.78-.44.05-.04.11-.07.17-.11h-.02Z"/>
      <path class="cls-2" d="M12.6,41.25c.2-.24.42-.49.62-.78.51-.71.98-1.54,1.18-2.43.08-.42.16-.86.17-1.27.04-.78-.15-1.46-.3-2.05-.02-.06-.03-.12-.04-.18-.07-.3-.16-.56-.23-.77-.11-.29-.2-.47-.2-.47-.18.07-.27.12-.38.17-.14.07-.32.16-.52.27-.1.06-.2.12-.31.18-.09.06-.2.13-.3.19-.56.38-1.2.92-1.7,1.64-.28.38-.45.79-.58,1.26-.13.48-.17.97-.16,1.46,0,.49.06.97.22,1.4.11.35.24.68.38.97.05.12.11.24.16.35.06.13.13.24.18.35.06.11.09.43.11.79.05.35.11.75.15,1.04.08.46.15.64.2.7.09.1.14-.38.23-.87.09-.5.22-1.01.35-1.14.18-.18.39-.4.65-.68.05-.05.09-.11.14-.16h0Z"/>
      <path class="cls-2" d="M17.99,48.01c.13-.3.25-.64.36-1,.27-.86.45-1.84.36-2.78,0-.49-.08-.95-.2-1.37-.11-.4-.25-.76-.42-1.09-.17-.33-.29-.67-.45-.95-.03-.06-.06-.11-.09-.17-.16-.29-.34-.53-.47-.72-.2-.27-.34-.41-.34-.41-.15.13-.23.19-.33.27-.12.1-.27.24-.43.41-.08.09-.16.18-.25.27-.08.09-.16.18-.23.27-.45.55-.9,1.26-1.17,2.13-.13.45-.27.97-.24,1.48.05,1.04.43,2.08.93,2.94.23.34.47.65.71.93.09.11.19.21.27.32.1.11.2.21.3.32.09.1.23.41.37.79.14.38.34.75.49,1.05.24.45.37.62.44.67.08.05.13.08.13.08,0,0-.12-.51-.2-1.05-.09-.54-.13-1.1-.04-1.27.13-.24.28-.54.43-.89.03-.07.05-.13.09-.21h0Z"/>
      <path class="cls-2" d="M25.68,53.69c.05-.38.1-.82.08-1.28-.03-.5-.1-1.07-.3-1.65-.1-.29-.22-.59-.37-.89-.09-.16-.09-.27-.14-.41-.04-.13-.08-.25-.12-.38-.17-.5-.4-.95-.66-1.34-.52-.72-1.01-1.4-1.5-1.88-.05-.05-.1-.1-.15-.15-.26-.24-.51-.44-.7-.59-.26-.24-.43-.37-.43-.37-.12.17-.17.26-.25.38-.09.15-.2.32-.31.55-.05.11-.12.23-.18.35-.05.11-.11.23-.16.35-.27.67-.49,1.52-.47,2.48,0,.51.08,1.04.24,1.6.35,1.06,1.1,1.94,1.83,2.7.32.34.76.67,1.12.95.13.1.26.21.38.31.14.11.27.21.4.3.26.19.85,1.35,1.16,1.99.24.52.37.69.44.76.08.07.13.1.13.1,0,0-.09-.55-.2-1.16-.11-.6-.24-1.26-.16-1.45.09-.27.2-.61.27-1.01.02-.08.03-.16.04-.24h0Z"/>
      <path class="cls-2" d="M10.76,7.62c-.52-.59-1.04-1.45-.94-2.46.04-.35.15-.69.3-1.01.28-.62.81-1.1,1.26-1.51.05-.04.09-.08.14-.12.24-.21.48-.37.67-.49.27-.18.45-.28.45-.28.11.11.16.17.23.24.08.1.18.21.28.35.05.07.11.15.16.22.05.07.09.15.15.22.27.44.54.97.66,1.55.06.3.08.62.03.95-.06.47-.28.87-.52,1.26-.23.41-.52.76-.8,1.06-.07.07-.13.13-.2.2-.08.07-.15.13-.21.2-.14.13-.28.78-.39,1.12-.09.27-.15.39-.19.43-.08.07-.14-.24-.19-.56-.05-.32-.14-.66-.24-.75-.15-.13-.34-.3-.52-.49-.04-.04-.07-.08-.11-.12h-.02Z"/>
      <path class="cls-2" d="M7.2,13.4c-.65-.54-1.35-1.37-1.46-2.48-.03-.38-.02-.78.11-1.14.22-.69.6-1.34.98-1.85.04-.05.08-.1.12-.16.2-.27.4-.49.56-.66.12-.13.21-.22.28-.29.08-.06.12-.1.12-.1.13.1.19.15.27.21.09.08.22.19.34.32.06.07.13.13.2.21.06.07.13.14.19.21.36.41.74.95.96,1.55.13.32.2.66.22,1.01.05,1.02-.47,1.97-.87,2.75-.05.09-.1.17-.15.25-.06.09-.12.18-.17.26-.11.16-.11.89-.14,1.28-.02.32-.07.44-.11.49-.06.08-.09,0-.14-.12-.04-.12-.1-.27-.16-.44-.13-.33-.28-.69-.41-.77-.18-.1-.39-.25-.63-.43-.05-.04-.09-.07-.13-.1h0Z"/>
      <path class="cls-2" d="M4.7,20.37c-.78-.45-1.68-1.2-2.04-2.39-.12-.41-.19-.84-.16-1.26.06-.79.31-1.57.57-2.21.03-.07.05-.13.09-.19.15-.33.29-.61.42-.83.09-.16.18-.28.23-.36.06-.08.09-.13.09-.13.15.08.22.13.31.18.12.07.26.16.42.28.08.06.16.12.24.18.07.06.15.13.23.19.45.38.94.89,1.3,1.49.2.32.35.67.45,1.06.14.55.14,1.11.06,1.63-.04.54-.14,1.06-.27,1.51-.03.1-.06.21-.09.3-.04.11-.08.21-.11.31-.06.19.08.97.18,1.41.09.35.09.49.06.55-.04.1-.24-.21-.48-.55-.25-.33-.47-.69-.62-.75-.2-.08-.45-.19-.73-.34-.05-.03-.1-.06-.16-.09h0Z"/>
      <path class="cls-2" d="M3.85,28.48c-.47-.16-.99-.4-1.49-.75-.48-.35-.91-.8-1.24-1.4-.23-.41-.38-.86-.49-1.32-.23-.87-.15-1.76-.03-2.5.02-.07.02-.15.04-.22.07-.38.15-.72.22-.98.1-.38.19-.6.19-.6.16.06.26.1.36.13.13.06.31.13.49.22.09.05.2.1.3.16.09.05.19.1.28.16.55.33,1.17.77,1.68,1.35.27.31.52.65.7,1.04.25.55.46,1.16.56,1.74.1.58.13,1.16.1,1.66,0,.12-.02.23-.02.34-.02.13,0,.24-.02.35,0,.22.44,1.01.66,1.45.17.35.2.51.2.58-.02.12-.3-.17-.62-.48-.32-.3-.69-.63-.85-.66-.23-.04-.52-.11-.85-.21-.06-.02-.13-.04-.19-.06h.02Z"/>
      <path class="cls-2" d="M5.18,37.12c-1.03-.15-2.37-.58-3.45-1.7-.39-.38-.67-.83-.89-1.3-.42-.89-.67-1.84-.8-2.64-.02-.08-.02-.16-.02-.24C0,30.81,0,30.44,0,30.14c0-.42.04-.68.04-.68.19.03.28.05.4.07.15.03.34.08.56.14.11.04.22.07.34.1.1.04.21.07.33.12.63.24,1.37.59,2.04,1.11.38.27.74.58,1.07.95.47.53.81,1.13,1.07,1.73.25.6.52,1.18.66,1.71.03.13.06.24.09.35.03.13.06.25.09.37.05.24.68.98,1.1,1.39.31.32.39.47.41.55.02.13-.37-.1-.8-.36-.44-.24-.93-.5-1.1-.5-.24,0-.56,0-.92-.04-.07,0-.13-.01-.2-.03Z"/>
      <path class="cls-2" d="M8.87,45.39c-.56.04-1.24.02-1.95-.13-.36-.07-.73-.18-1.1-.32-.36-.15-.71-.35-1.07-.59-.49-.34-.92-.75-1.32-1.18-.78-.81-1.25-1.79-1.6-2.62-.03-.09-.07-.17-.1-.25-.17-.44-.3-.83-.39-1.14-.14-.44-.16-.72-.16-.72h.43c.16,0,.36.02.6.04.13.01.25.03.39.04.12.01.25.04.38.06.74.13,1.61.35,2.48.75.46.21.92.47,1.34.8.6.48,1.22,1,1.68,1.56.49.55.82,1.15,1.18,1.65.08.12.16.23.23.34.08.13.15.24.22.35.13.23,1.07.83,1.57,1.19.39.28.56.39.6.47.07.12-.05.08-.24.03-.19-.06-.45-.13-.7-.21-.51-.17-1.08-.34-1.26-.3-.26.06-.59.12-.97.16-.07,0-.15.01-.23.01h-.02Z"/>
      <path class="cls-2" d="M15.45,53.18c-1.14.37-2.84.64-4.61-.02-.62-.22-1.21-.52-1.78-.86-1.04-.66-1.84-1.56-2.5-2.3-.06-.08-.13-.16-.2-.23-.16-.2-.31-.39-.45-.57-.13-.18-.22-.36-.31-.51-.25-.44-.38-.72-.38-.72.2-.04.31-.07.45-.1.17-.03.38-.06.63-.09.13-.01.26-.02.41-.04.13,0,.26-.01.4-.02.39-.01.81,0,1.28.02.48.02.98.08,1.5.18.55.1,1.1.26,1.66.49.4.16.78.35,1.14.56.38.19.75.4,1.1.62.68.44,1.28.92,1.76,1.37.13.1.24.19.35.28.13.1.24.2.35.3.22.19,1.41.55,2.04.77.5.18.7.27.77.32.07.06.11.1.11.1-.02.05-2.19-.17-2.55,0-.24.13-.56.27-.96.41-.07.02-.15.05-.23.07v-.02Z"/>
      <path class="cls-2" d="M23.12,59.16c-1.15.39-2.7.79-4.17.83h-.72c-.12,0-.23,0-.34-.01-.04,0-.13-.03-.22-.06-.09-.03-.16-.06-.25-.09-1.27-.45-2.44-1.09-3.37-1.68-.1-.06-.18-.13-.27-.19-.45-.35-.83-.68-1.11-.94-.42-.38-.64-.62-.64-.62.2-.1.31-.14.43-.2.16-.07.38-.16.63-.24.13-.04.27-.09.41-.13.13-.04.27-.08.41-.12.81-.23,1.79-.38,2.92-.44.61-.04,1.25-.03,1.9.04,1.94.28,3.49.83,4.61,1.64.13.09.24.18.36.27.13.1.24.2.36.29.22.18,1.43.58,2.08.9.52.24.7.4.76.47.06.08.09.13.09.13,0,0-.57-.15-1.19-.26-.63-.1-1.27-.16-1.46-.07-.27.11-.6.25-1,.39-.08.03-.15.05-.23.08h0Z"/>
    </g>
  </g>
  <g class="cls-3">
    <g>
      <path class="cls-2" d="M43.89,4.45h.16c.28,0,.54-.01.74-.03.16-.02.47.16.74.36.27.19.51.39.52.3,0-.06-.02-.18-.16-.44-.1-.16-.24-.39-.35-.59-.13-.19-.25-.35-.25-.44s-.02-.18-.02-.27c0-.08-.02-.17-.03-.26-.11-.78-.45-1.76-1.22-2.41-.28-.21-.61-.35-.94-.45-.63-.19-1.28-.23-1.82-.19-.09,0-.19.01-.27.02-.09.01-.19.02-.28.04-.18.03-.33.06-.45.09-.09.03-.17.04-.32.09,0,0,0,.18.05.46.02.19.06.43.12.69,0,.04.02.1.03.15.13.49.31,1.04.63,1.5.17.24.38.46.63.64.67.58,1.66.71,2.48.73v.02Z"/>
      <path class="cls-2" d="M46.47,8.39c.05-.02.1-.04.15-.07.26-.12.48-.24.65-.33.13-.07.49-.04.83,0,.34.04.65.11.62.02-.02-.05-.11-.15-.37-.31-.33-.21-.93-.52-1.01-.67-.03-.08-.09-.16-.15-.24-.05-.07-.11-.14-.16-.21-.17-.22-.38-.45-.61-.66-.43-.4-.96-.74-1.55-.86-.31-.07-.64-.05-.96.01-.6.12-1.15.39-1.59.67-.07.05-.15.1-.22.15-.08.06-.16.11-.23.16-.14.1-.26.2-.35.28-.07.07-.13.12-.24.22,0,0,.07.14.21.34.09.14.22.31.46.6.27.37.63.75,1.1,1.02.25.14.52.25.84.3.59.1,1.21,0,1.75-.13.3-.08.59-.18.85-.3h0Z"/>
      <path class="cls-2" d="M49.8,13.43c.05-.01.11-.02.16-.04.28-.06.54-.13.74-.19.14-.04.52.06.87.18.34.13.66.27.64.16,0-.06-.08-.18-.32-.4-.31-.28-.86-.74-.96-.89-.04-.08-.09-.17-.13-.27-.04-.08-.08-.16-.13-.25-.13-.26-.3-.53-.49-.79-.38-.49-.84-.98-1.5-1.2-.34-.12-.7-.17-1.04-.17-.65,0-1.28.16-1.79.35-.09.04-.18.07-.27.1-.09.04-.18.08-.27.12-.16.07-.31.16-.42.21-.09.05-.16.1-.3.18,0,0,.05.16.16.38.07.16.17.36.3.58.02.04.05.08.08.13.28.38.56.86,1,1.23.23.19.5.36.81.48.6.23,1.28.27,1.92.22.33-.02.63-.06.92-.12h0Z"/>
      <path class="cls-2" d="M52.12,19.52h.18c.31,0,.6,0,.81-.01.16,0,.53.19.88.41.34.21.64.44.64.32s-.05-.21-.27-.49c-.27-.36-.78-.97-.81-1.16,0-.1-.03-.21-.06-.31-.02-.09-.05-.18-.09-.29-.09-.29-.21-.6-.37-.91-.31-.6-.7-1.21-1.35-1.59-.34-.2-.7-.32-1.07-.41-.68-.15-1.37-.12-1.95-.04-.1.02-.2.04-.3.05-.11.02-.21.04-.31.07-.19.04-.35.09-.49.13-.1.03-.19.06-.34.11,0,0,.02.16.09.42.04.18.11.4.2.64.02.04.04.1.05.14.09.23.24.47.36.72.12.25.27.5.47.74.21.24.46.48.77.67.59.38,1.32.57,1.96.69.34.06.67.09.97.1h0Z"/>
      <path class="cls-2" d="M53.04,26.57c.06.01.13.04.19.05.32.1.61.16.84.21.16.04.52.35.84.66.16.16.28.32.38.44.09.12.16.19.19.08,0-.07.02-.22-.15-.58-.2-.46-.63-1.23-.62-1.43,0-.11,0-.22,0-.34v-.32c-.02-.34-.02-.72-.15-1.09-.2-.69-.54-1.4-1.08-1.96-.29-.3-.59-.53-.97-.7-.7-.32-1.43-.47-2.04-.52-.11,0-.22-.01-.32-.02-.12,0-.23,0-.33,0-.2,0-.39,0-.53,0-.12,0-.2.01-.38.03,0,0,0,.18.02.45.02.19.05.44.1.7,0,.05.02.1.03.16.05.52.2,1.13.52,1.71.17.3.4.61.67.89.47.53,1.11.92,1.76,1.21.35.16.7.28,1.03.38h0Z"/>
      <path class="cls-2" d="M52.06,34.06c.06.04.12.07.17.11.3.18.56.33.78.44.16.08.42.5.64.92.22.42.4.83.45.72.02-.07.04-.24-.02-.66-.07-.54-.27-1.45-.2-1.67.04-.1.09-.22.1-.35.02-.11.04-.23.05-.35.05-.32.09-.69.09-1.06.02-.81-.09-1.68-.6-2.45-.23-.38-.53-.72-.85-.99-.6-.52-1.28-.86-1.89-1.08-.1-.04-.2-.07-.31-.1-.12-.04-.23-.07-.34-.1-.21-.05-.4-.1-.55-.13-.12-.02-.22-.04-.42.06-.02.08-.02.19-.06.34-.05.2-.09.45-.11.75,0,.06,0,.11,0,.17-.02.28-.02.58.02.91s.11.66.17,1c.09.36.22.73.42,1.1.39.72,1.06,1.34,1.63,1.82.27.23.56.43.82.61h-.02Z"/>
      <path class="cls-2" d="M49.1,41.24c.05.05.09.11.14.16.26.28.47.5.65.68.13.13.27.64.35,1.14.09.49.14.97.23.87.05-.06.12-.24.2-.7.04-.29.1-.69.15-1.04.02-.36.05-.68.11-.79.05-.11.12-.23.18-.35.05-.11.11-.23.16-.35.13-.3.27-.63.38-.97.16-.43.21-.92.22-1.4,0-.49-.04-.98-.16-1.46-.13-.47-.3-.87-.58-1.26-.5-.72-1.14-1.26-1.7-1.64-.1-.07-.2-.13-.3-.19-.11-.07-.21-.13-.31-.18-.2-.11-.38-.2-.52-.27-.12-.05-.2-.1-.38-.17,0,0-.09.18-.2.47-.07.21-.16.47-.23.77,0,.06-.02.12-.04.18-.15.58-.34,1.27-.3,2.05.02.41.09.85.17,1.27.2.89.67,1.72,1.18,2.43.2.29.42.55.62.78h0Z"/>
      <path class="cls-2" d="M43.71,48.02c.03.07.05.14.09.21.15.35.31.66.43.89.09.17.05.73-.04,1.27-.08.54-.2,1.05-.2,1.05,0,0,.05-.03.13-.08.07-.05.2-.22.44-.67.14-.3.34-.67.49-1.05.14-.38.27-.69.37-.79.09-.1.2-.21.3-.32.09-.1.18-.21.27-.32.24-.28.49-.59.71-.93.5-.86.88-1.9.93-2.94.03-.5-.1-1.03-.24-1.48-.27-.86-.73-1.58-1.17-2.13-.08-.1-.16-.18-.23-.27-.09-.1-.17-.18-.25-.27-.16-.16-.31-.3-.43-.41-.1-.08-.18-.15-.33-.27,0,0-.14.15-.34.41-.13.18-.31.43-.47.72-.03.06-.06.11-.09.17-.16.27-.28.62-.45.95-.17.33-.31.69-.42,1.09-.12.42-.2.88-.2,1.37-.09.95.09,1.92.36,2.78.11.36.24.7.36,1h0Z"/>
      <path class="cls-2" d="M36.04,53.71c0,.08.02.15.04.24.08.41.18.75.27,1.01.07.19-.05.86-.16,1.45-.1.61-.2,1.16-.2,1.16,0,0,.05-.03.13-.1.07-.07.2-.24.44-.76.31-.64.9-1.79,1.16-1.99.13-.1.26-.19.4-.3.13-.1.25-.21.38-.31.36-.28.8-.61,1.12-.95.74-.76,1.48-1.65,1.83-2.7.16-.55.24-1.09.24-1.6.02-.96-.2-1.81-.47-2.48-.05-.12-.1-.24-.16-.35-.06-.13-.13-.24-.18-.35-.12-.22-.23-.4-.31-.55-.08-.12-.13-.21-.25-.38,0,0-.17.13-.43.37-.2.15-.45.35-.7.59-.05.05-.09.1-.15.15-.49.48-.99,1.16-1.5,1.88-.26.4-.49.84-.66,1.34-.04.13-.08.25-.12.38-.05.13-.05.24-.14.41-.15.3-.27.61-.37.89-.2.58-.27,1.14-.3,1.65-.02.47.02.9.08,1.28h0Z"/>
      <path class="cls-2" d="M50.93,7.62s-.07.08-.11.12c-.18.2-.37.37-.52.49-.1.09-.19.44-.24.75-.05.32-.11.63-.19.56-.04-.04-.09-.16-.19-.43-.11-.35-.25-1-.39-1.12-.06-.07-.13-.13-.21-.2-.06-.07-.13-.13-.2-.2-.28-.3-.57-.66-.8-1.06-.24-.39-.46-.8-.52-1.26-.05-.32-.03-.64.03-.95.12-.58.38-1.12.66-1.55.05-.07.1-.15.15-.22.05-.07.11-.15.16-.22.1-.14.2-.25.28-.35.07-.07.12-.13.23-.24,0,0,.18.1.45.28.19.13.42.29.67.49.05.04.09.08.14.12.45.41.98.89,1.26,1.51.15.32.26.66.3,1.01.1,1-.42,1.87-.94,2.46h-.02Z"/>
      <path class="cls-2" d="M54.52,13.4s-.09.07-.13.1c-.23.18-.45.32-.63.43-.13.08-.28.44-.41.77-.05.17-.12.32-.16.44-.05.12-.08.2-.14.12-.04-.05-.09-.18-.11-.49-.03-.4-.03-1.12-.14-1.28-.05-.08-.11-.17-.17-.26-.05-.08-.09-.16-.15-.25-.4-.78-.92-1.73-.87-2.75.02-.35.09-.69.22-1.01.23-.61.6-1.14.96-1.55.06-.07.13-.14.19-.21.07-.07.14-.14.2-.21.13-.13.25-.24.34-.32.08-.07.14-.12.27-.21,0,0,.04.04.12.1.07.07.16.16.28.29.16.17.36.4.56.66.04.05.08.1.12.16.38.52.76,1.17.98,1.85.13.36.14.76.11,1.14-.11,1.11-.81,1.94-1.46,2.48h0Z"/>
      <path class="cls-2" d="M57.02,20.37c-.05.03-.1.06-.16.09-.27.15-.52.26-.73.34-.15.06-.37.41-.62.75-.23.34-.44.65-.48.55-.02-.06-.02-.21.06-.55.1-.44.24-1.22.18-1.41-.03-.1-.07-.2-.11-.31-.03-.1-.06-.2-.09-.3-.13-.45-.23-.97-.27-1.51-.08-.52-.08-1.09.06-1.63.09-.38.25-.73.45-1.06.36-.61.85-1.12,1.3-1.49.08-.07.16-.13.23-.19.09-.07.16-.13.24-.18.16-.12.3-.21.42-.28.09-.05.16-.1.31-.18,0,0,.03.04.09.13.05.08.15.2.23.36.13.22.27.5.42.83.03.06.05.13.09.19.27.64.51,1.42.57,2.21.02.42-.05.86-.16,1.26-.36,1.19-1.25,1.94-2.04,2.39h0Z"/>
      <path class="cls-2" d="M57.87,28.48c-.06.02-.13.04-.19.06-.32.1-.62.17-.85.21-.16.04-.53.36-.85.66-.32.31-.6.6-.62.48,0-.07.02-.22.2-.58.22-.44.66-1.23.66-1.45,0-.11,0-.22-.02-.35,0-.11-.02-.22-.02-.34-.02-.5,0-1.08.1-1.66.1-.58.31-1.19.56-1.74.19-.39.43-.73.7-1.04.51-.58,1.13-1.03,1.68-1.35.09-.06.19-.11.28-.16.1-.05.2-.1.3-.16.19-.09.36-.16.49-.22.1-.04.2-.07.36-.13,0,0,.09.22.19.6.07.26.15.6.22.98.02.07.02.15.04.22.12.74.2,1.62-.03,2.5-.11.46-.27.91-.49,1.32-.33.6-.76,1.06-1.24,1.4-.49.35-1.02.58-1.49.75h.02Z"/>
      <path class="cls-2" d="M56.33,37.15c-.36.04-.67.04-.92.04-.17,0-.67.26-1.1.5-.43.26-.82.49-.8.36.02-.07.1-.22.41-.55.42-.41,1.04-1.15,1.1-1.39.02-.12.05-.24.09-.37.03-.11.06-.23.09-.35.14-.53.41-1.12.66-1.71.26-.6.6-1.2,1.07-1.73.33-.37.7-.68,1.07-.95.67-.52,1.4-.87,2.04-1.11.12-.04.23-.08.33-.12.13-.04.23-.07.34-.1.22-.06.41-.11.56-.14.12-.02.21-.04.4-.07,0,0,.03.26.04.68,0,.3,0,.66-.02,1.09,0,.08,0,.16-.02.24-.13.81-.38,1.76-.8,2.64-.22.47-.49.92-.89,1.3-1.08,1.12-2.41,1.55-3.45,1.7-.07.01-.13.02-.2.03Z"/>
      <path class="cls-2" d="M52.82,45.37c-.08,0-.16-.01-.23-.01-.38-.04-.71-.1-.97-.16-.18-.04-.75.13-1.26.3-.25.09-.52.16-.7.21-.19.05-.31.09-.24-.03.04-.07.21-.18.6-.47.5-.35,1.44-.96,1.57-1.19.07-.11.14-.23.22-.35.07-.11.15-.22.23-.34.36-.49.7-1.09,1.18-1.65.46-.56,1.08-1.08,1.68-1.56.42-.32.88-.58,1.34-.8.87-.4,1.75-.62,2.48-.75.13-.02.26-.04.38-.06.14-.01.27-.03.39-.04.24-.02.44-.04.6-.04h.43s-.02.28-.16.72c-.09.31-.22.7-.39,1.14-.03.08-.07.16-.1.25-.34.83-.81,1.81-1.6,2.62-.39.44-.83.84-1.32,1.18-.35.24-.7.44-1.07.59-.38.14-.74.24-1.1.32-.71.15-1.39.16-1.95.13h-.02Z"/>
      <path class="cls-2" d="M46.26,53.2c-.08-.02-.16-.05-.23-.07-.39-.14-.71-.28-.96-.41-.37-.16-2.53.06-2.55,0,0,0,.04-.04.11-.1.07-.06.27-.14.77-.32.63-.22,1.82-.58,2.04-.77.11-.1.23-.19.35-.3.11-.09.23-.18.35-.28.49-.45,1.08-.94,1.76-1.37.34-.22.71-.43,1.1-.62.37-.21.74-.4,1.14-.56.56-.23,1.11-.38,1.66-.49.52-.1,1.02-.16,1.5-.18.48-.02.89-.04,1.28-.02.14,0,.27.02.4.02.15.01.28.02.41.04.25.03.46.06.63.09.13.03.24.05.45.1,0,0-.13.27-.38.72-.09.15-.19.32-.31.51-.13.18-.28.37-.45.57-.06.07-.13.15-.2.23-.66.75-1.46,1.65-2.5,2.3-.56.35-1.16.64-1.78.86-1.76.66-3.46.39-4.61.02v.02Z"/>
      <path class="cls-2" d="M38.58,59.14c-.08-.03-.15-.05-.23-.08-.4-.14-.74-.28-1-.39-.2-.09-.84-.03-1.46.07-.62.1-1.19.26-1.19.26,0,0,.03-.04.09-.13.06-.07.24-.22.76-.47.66-.32,1.86-.72,2.08-.9.12-.09.23-.18.36-.29.12-.08.23-.18.36-.27,1.11-.81,2.66-1.36,4.61-1.64.66-.07,1.29-.08,1.9-.04,1.14.06,2.11.21,2.92.44.14.04.27.08.41.12.14.04.28.09.41.13.25.09.47.17.63.24.13.06.24.1.43.2,0,0-.23.24-.64.62-.28.26-.67.58-1.11.94-.09.06-.16.13-.27.19-.93.59-2.1,1.23-3.37,1.68-.09.03-.16.06-.25.09-.09.03-.18.06-.22.06-.11,0-.22.01-.34.01h-.72c-1.46-.04-3.02-.44-4.17-.83h0Z"/>
    </g>
  </g>
</svg>